<?xml version="1.0" encoding="UTF-8"?>
<svg width="175px" height="76px" viewBox="0 0 175 76" version="1.1" xmlns="http://www.w3.org/2000/svg" xmlns:xlink="http://www.w3.org/1999/xlink">
    <!-- Generator: Sketch 54.1 (76490) - https://sketchapp.com -->
    <title>Logo Copy</title>
    <desc>Created with Sketch.</desc>
    <g id="Logo-Copy" stroke="none" stroke-width="1" fill="none" fill-rule="evenodd">
        <g id="Group" transform="translate(64.166667, 19.901961)" fill-rule="nonzero">
            <path d="M6.89705882,13.3823529 L6.89705882,20.9656863 L6.78011179,20.9950981 C6.52801095,21.0539218 6.16666902,21.1127451 5.69607843,21.1715686 C5.14705882,21.2401964 4.60947975,21.2745098 4.08333333,21.2745098 C3.55718691,21.2745098 3.09395625,21.2344775 2.69362745,21.1544118 C2.29329865,21.074346 1.95588373,20.9313725 1.68137255,20.7254902 C1.40686137,20.5196068 1.20098039,20.233662 1.06372549,19.8676471 C0.926469902,19.5016322 0.857843137,19.0212448 0.857843137,18.4264706 L0.857843137,0.308823529 L0.974790168,0.288165215 C1.22689101,0.244747829 1.58823294,0.188725833 2.05882353,0.120098039 C2.60784588,0.0400322794 3.13398441,-2.84217094e-14 3.6372549,-2.84217094e-14 C4.16340132,-2.84217094e-14 4.62663199,0.0400322794 5.02696078,0.120098039 C5.42728958,0.200163799 5.76470451,0.343137255 6.03921569,0.549019608 C6.31372686,0.75490299 6.51960784,1.04084784 6.65686275,1.40686275 C6.79411833,1.77287765 6.8627451,2.253265 6.8627451,2.84803922 L6.8627451,8.30392157 L14,0.102941176 C15.5555633,0.102941176 16.6707483,0.394604926 17.3455882,0.977941176 C18.0204282,1.56127743 18.3578431,2.25326397 18.3578431,3.05392157 C18.3578431,3.64869578 18.2091518,4.2091477 17.9117647,4.73529412 C17.6143776,5.26144054 17.1339902,5.85620583 16.4705882,6.51960784 L12.1813725,10.8088235 L12.7628001,11.4569723 C13.1567718,11.8941539 13.5634511,12.341501 13.9828431,12.7990196 L14.7322554,13.6143143 C14.9802287,13.8833333 15.2263717,14.1496069 15.4706854,14.4131363 L15.8357843,14.8063725 C16.2399258,15.2410152 16.6338963,15.6629449 17.017701,16.0721672 L19.0441176,18.2205882 L19.0441176,18.2205882 C19.0441176,18.7238587 18.9526153,19.1699327 18.7696078,19.5588235 C18.5866004,19.9477144 18.3406878,20.2794104 18.0318627,20.5539216 C17.7230377,20.8284327 17.374185,21.034313 16.9852941,21.1715686 C16.5964033,21.3088242 16.1846427,21.377451 15.75,21.377451 C14.8120868,21.377451 14.0457546,21.1429762 13.4509804,20.6740196 C12.8562062,20.205063 12.2843165,19.65033 11.7352941,19.0098039 L6.89705882,13.3823529 Z M21.5147059,4.66666667 C21.7434652,4.59803887 22.1037557,4.52941176 22.5955882,4.46078431 C23.0874208,4.39215652 23.5964026,4.35784314 24.122549,4.35784314 C24.6258195,4.35784314 25.0776124,4.39215652 25.4779412,4.46078431 C25.87827,4.52941176 26.2156849,4.66666564 26.4901961,4.87254902 C26.7647073,5.0784324 26.9763064,5.35865836 27.125,5.71323529 C27.2736936,6.06781223 27.3480392,6.53104289 27.3480392,7.10294118 L27.3480392,14.4803922 C27.3480392,15.4183053 27.5767951,16.0874163 28.0343137,16.4877451 C28.4918324,16.8880739 29.1552244,17.0882353 30.0245098,17.0882353 C30.5506562,17.0882353 30.9795735,17.0424841 31.3112745,16.9509804 C31.6429755,16.8594767 31.9003259,16.7679743 32.0833333,16.6764706 L32.0833333,4.66666667 C32.3120926,4.59803887 32.6723832,4.52941176 33.1642157,4.46078431 C33.6560482,4.39215652 34.16503,4.35784314 34.6911765,4.35784314 C35.194447,4.35784314 35.6462398,4.39215652 36.0465686,4.46078431 C36.4468974,4.52941176 36.7843137,4.66666564 37.0588235,4.87254902 C37.3333347,5.0784324 37.5449339,5.35865836 37.6936275,5.71323529 C37.842321,6.06781223 37.9166667,6.53104289 37.9166667,7.10294118 L37.9166667,17.5343137 C37.9166667,18.6399837 37.4677714,19.4784381 36.5699678,20.0497002 L36.4754902,20.1078431 C35.6748326,20.6111136 34.7197768,20.9942797 33.6102941,21.2573529 C32.5008114,21.5204262 31.2941242,21.6519608 29.9901961,21.6519608 C28.7548958,21.6519608 27.6168353,21.5147059 26.5759804,21.2401961 C25.5351255,20.9656849 24.6372587,20.5424865 23.8823529,19.9705882 C23.1274472,19.39869 22.5441176,18.6609522 22.1323529,17.7573529 C21.7205862,16.8537537 21.5147059,15.7614443 21.5147059,14.4803922 L21.5147059,4.66666667 Z M49.1372549,3.91176471 C50.5098108,3.91176471 51.7851248,4.08905051 52.9632353,4.44362745 C54.1413458,4.79820439 55.1535905,5.34149961 56,6.07352941 C56.8464095,6.80555922 57.5098015,7.72630164 57.9901961,8.83578431 C58.4705882,9.94526699 58.7107843,11.2663322 58.7107843,12.7990196 C58.7107843,14.2630792 58.504904,15.5441122 58.0931373,16.6421569 C57.6813705,17.7402016 57.098043,18.660944 56.3431373,19.4044118 C55.5882315,20.1478795 54.6789269,20.7026125 53.6151961,21.0686275 C52.5514653,21.4346424 51.3676536,21.6176471 50.0637255,21.6176471 C49.0800604,21.6176471 48.1650369,21.4689557 47.3186275,21.1715686 L47.3186275,26.8676471 C47.0898681,26.9362749 46.7238587,27.0106205 46.2205882,27.0906863 C45.7173177,27.170752 45.202617,27.2107843 44.6764706,27.2107843 C44.1732001,27.2107843 43.7214072,27.1764709 43.3210784,27.1078431 C42.9207496,27.0392153 42.5833347,26.9019608 42.3088235,26.6960784 C42.0343124,26.490195 41.8284314,26.2099691 41.6911765,25.8553922 C41.5539209,25.5008152 41.4852941,25.0375846 41.4852941,24.4656863 L41.4852941,7.99509804 C41.4852941,7.37744789 41.6168288,6.87418495 41.879902,6.48529412 C42.1429752,6.09640328 42.5032657,5.74183167 42.9607843,5.42156863 C43.6699382,4.96405 44.5506483,4.59803922 45.6029412,4.32352941 C46.655234,4.04901824 47.8333268,3.91176471 49.1372549,3.91176471 Z M49.2058824,17.0196078 C51.5621033,17.0196078 52.7401961,15.6127592 52.7401961,12.7990196 C52.7401961,11.33496 52.4485323,10.2483696 51.8651961,9.53921569 C51.2818598,8.83006181 50.441182,8.4754902 49.3431373,8.4754902 C48.9084946,8.4754902 48.5196096,8.52696027 48.1764706,8.62990196 C47.8333316,8.73284365 47.535949,8.85294049 47.2843137,8.99019608 L47.2843137,16.5392157 C47.5588249,16.6764713 47.8562075,16.7908492 48.1764706,16.8823529 C48.4967336,16.9738567 48.8398675,17.0196078 49.2058824,17.0196078 Z M78.8186275,12.7647059 C78.8186275,14.1830136 78.6013094,15.4468899 78.1666667,16.5563725 C77.732024,17.6658552 77.120102,18.5980354 76.3308824,19.3529412 C75.5416627,20.1078469 74.5980447,20.6797366 73.5,21.0686275 C72.4019553,21.4575183 71.1781113,21.6519608 69.8284314,21.6519608 C68.4787514,21.6519608 67.2549075,21.4460805 66.1568627,21.0343137 C65.058818,20.622547 64.1152,20.0335006 63.3259804,19.2671569 C62.5367608,18.5008132 61.9248388,17.5686329 61.4901961,16.4705882 C61.0555534,15.3725435 60.8382353,14.1372618 60.8382353,12.7647059 C60.8382353,11.4150259 61.0555534,10.191182 61.4901961,9.09313725 C61.9248388,7.99509255 62.5367608,7.06291233 63.3259804,6.29656863 C64.1152,5.53022493 65.058818,4.94117647 66.1568627,4.52941176 C67.2549075,4.117645 68.4787514,3.91176471 69.8284314,3.91176471 C71.1781113,3.91176471 72.4019553,4.1233639 73.5,4.54656863 C74.5980447,4.96977336 75.5416627,5.56453865 76.3308824,6.33088235 C77.120102,7.09722605 77.732024,8.02940627 78.1666667,9.12745098 C78.6013094,10.2254957 78.8186275,11.4379019 78.8186275,12.7647059 Z M66.8088235,12.7647059 C66.8088235,14.1601377 67.0776117,15.2295714 67.6151961,15.9730392 C68.1527805,16.716507 68.901956,17.0882353 69.8627451,17.0882353 C70.8235342,17.0882353 71.5612719,16.7107881 72.0759804,15.9558824 C72.5906888,15.2009766 72.8480392,14.1372618 72.8480392,12.7647059 C72.8480392,11.39215 72.58497,10.334154 72.0588235,9.59068627 C71.5326771,8.8472185 70.7892205,8.4754902 69.8284314,8.4754902 C68.8676423,8.4754902 68.1241856,8.8472185 67.5980392,9.59068627 C67.0718928,10.334154 66.8088235,11.39215 66.8088235,12.7647059 Z M92.2352941,10.5343137 C92.2352941,9.82515985 92.0351327,9.30474022 91.6348039,8.97303922 C91.2344751,8.64133821 90.6911799,8.4754902 90.004902,8.4754902 C89.5473833,8.4754902 89.0955905,8.53267917 88.6495098,8.64705882 C88.2034291,8.76143848 87.820263,8.93300539 87.5,9.16176471 L87.5,21.0686275 C87.2712407,21.1372552 86.9109502,21.205882 86.4191176,21.2745098 C85.9272851,21.3431376 85.4183033,21.377451 84.8921569,21.377451 C84.3888864,21.377451 83.9370935,21.3431376 83.5367647,21.2745098 C83.1364359,21.205882 82.799021,21.0686275 82.5245098,20.8627451 C82.2499986,20.6568617 82.0383994,20.3766358 81.8897059,20.0220588 C81.7410123,19.6674819 81.6666667,19.2042512 81.6666667,18.6323529 L81.6666667,8.33823529 C81.6666667,7.72058515 81.7982013,7.21732221 82.0612745,6.82843137 C82.3243477,6.43954054 82.6846382,6.08496892 83.1421569,5.76470588 C83.9199385,5.21568353 84.8978699,4.76960784 86.0759804,4.42647059 C87.2540909,4.08333333 88.5637183,3.91176471 90.004902,3.91176471 C92.5898822,3.91176471 94.5800584,4.47793551 95.9754902,5.61029412 C97.370922,6.74265272 98.0686275,8.31534941 98.0686275,10.3284314 L98.0686275,21.0686275 C97.8398681,21.1372552 97.4795776,21.205882 96.9877451,21.2745098 C96.4959126,21.3431376 95.9869307,21.377451 95.4607843,21.377451 C94.9575138,21.377451 94.505721,21.3431376 94.1053922,21.2745098 C93.7050634,21.205882 93.3676484,21.0686275 93.0931373,20.8627451 C92.8186275,20.6568617 92.6070269,20.3766358 92.4583333,20.0220588 C92.3096398,19.6674819 92.2352941,19.2042512 92.2352941,18.6323529 L92.2352941,10.5343137 Z" id="Kupon" fill="#FF0000"></path>
            <path d="M0.388710172,34.7107843 L0.388710172,31.3921712 L1.52325798,31.3921712 C1.86014182,31.3921712 2.15895977,31.4654586 2.41972082,31.6120354 C2.68048186,31.7586123 2.87969383,31.9574193 3.01736271,32.2084626 C3.15503158,32.4595058 3.22386499,32.7413179 3.22386499,33.0539072 C3.22386499,33.2887541 3.18337475,33.5078063 3.10239306,33.7110703 C3.02141137,33.9143344 2.9080387,34.0896571 2.76227166,34.2370438 C2.61650461,34.3844305 2.43713286,34.5002325 2.22415101,34.5844535 C2.01116917,34.6686745 1.77754049,34.7107843 1.52325798,34.7107843 L0.388710172,34.7107843 Z M0.801714729,34.3415097 L1.52325798,34.3415097 C1.78401903,34.3415097 2.01238397,34.2832037 2.20835966,34.1665901 C2.40433535,34.0499764 2.55131492,33.8953037 2.64930276,33.7025673 C2.74729061,33.5098309 2.7962838,33.293613 2.7962838,33.0539072 C2.7962838,32.8109621 2.74810041,32.5931247 2.6517322,32.4003882 C2.55536399,32.2076518 2.40959913,32.0529791 2.21443326,31.9363655 C2.01926738,31.8197518 1.78887793,31.7614459 1.52325798,31.7614459 L0.801714729,31.7614459 L0.801714729,34.3415097 Z M3.71461158,33.5057828 C3.71461158,33.2757948 3.76522437,33.0648406 3.86645149,32.872914 C3.9676786,32.6809874 4.10898953,32.5287441 4.29038852,32.4161796 C4.47178751,32.303615 4.6750485,32.2473336 4.9001776,32.2473336 C5.13664414,32.2473336 5.34314435,32.3048297 5.51968444,32.4198237 C5.69622452,32.5348177 5.8294374,32.6890855 5.91932708,32.8826318 C6.00921676,33.076178 6.05416092,33.2944204 6.05416092,33.5373655 L6.05416092,33.6321136 L4.1130395,33.6321136 C4.12761621,33.8685801 4.2122408,34.0661725 4.36691583,34.2248966 C4.52159086,34.3836207 4.72363715,34.4629816 4.97306076,34.4629816 C5.1139689,34.4629816 5.2496112,34.436258 5.37999172,34.3828101 C5.51037224,34.3293622 5.62414981,34.2532405 5.72132784,34.1544429 L5.89867685,34.3973867 C5.64439434,34.6468103 5.32614107,34.7715203 4.94390749,34.7715203 C4.58434879,34.7715203 4.28957986,34.6540986 4.05959185,34.4192517 C3.82960385,34.1844048 3.71461158,33.8799182 3.71461158,33.5057828 Z M4.10818063,33.3527282 L5.68488626,33.3527282 C5.68326663,33.260409 5.66666563,33.1689011 5.63508277,33.0782016 C5.60349991,32.9875021 5.55693614,32.9024726 5.49539005,32.8231105 C5.43384397,32.7437485 5.35124388,32.679369 5.24758732,32.6299702 C5.14393075,32.5805713 5.02650906,32.5558723 4.89531872,32.5558723 C4.77222655,32.5558723 4.6604735,32.5801664 4.5600562,32.6287555 C4.4596389,32.6773445 4.37825353,32.7409141 4.31589762,32.8194664 C4.25354172,32.8980186 4.20454853,32.9830481 4.16891659,33.0745574 C4.13328465,33.1660667 4.11303953,33.2587894 4.10818063,33.3527282 Z M6.45258885,34.3925279 L6.63965562,34.1228602 C6.72549621,34.2200382 6.83967868,34.3018285 6.98220646,34.3682335 C7.12473423,34.4346385 7.27454811,34.4678405 7.43165259,34.4678405 C7.61143195,34.4678405 7.75193307,34.4297796 7.85316018,34.3536568 C7.9543873,34.2775341 8.0050001,34.1779281 8.0050001,34.0548359 C8.0050001,33.9770935 7.97746673,33.9114993 7.92239918,33.8580514 C7.86733163,33.8046035 7.79606882,33.7633034 7.70860859,33.73415 C7.62114836,33.7049966 7.5247816,33.678273 7.4195054,33.6539785 C7.3142292,33.629684 7.20854968,33.6013409 7.10246367,33.5689482 C6.99637765,33.5365555 6.89960598,33.4968751 6.81214576,33.4499057 C6.72468553,33.4029363 6.65342271,33.3361274 6.59835516,33.249477 C6.54328761,33.1628266 6.51575425,33.0595765 6.51575425,32.9397236 C6.51575425,32.7421283 6.59511512,32.577333 6.75383923,32.4453328 C6.91256334,32.3133327 7.13040082,32.2473336 7.40735821,32.2473336 C7.77339545,32.2473336 8.06978399,32.3639455 8.29653272,32.5971728 L8.12404259,32.8546932 C8.04953943,32.7639938 7.94952854,32.6907064 7.82400692,32.6348291 C7.6984853,32.5789517 7.55960379,32.5510134 7.40735821,32.5510134 C7.24701446,32.5510134 7.1182555,32.5870497 7.02107747,32.6591234 C6.92389945,32.7311971 6.87531116,32.8214904 6.87531116,32.9300058 C6.87531116,32.9996501 6.90284452,33.0583609 6.95791207,33.1061401 C7.01297962,33.1539193 7.08383754,33.1911704 7.17048795,33.2178943 C7.25713836,33.2446183 7.35350512,33.2697222 7.45959114,33.2932069 C7.56567715,33.3166916 7.67176157,33.3454397 7.77784759,33.379452 C7.8839336,33.4134643 7.98030037,33.4551692 8.06695078,33.5045681 C8.15360119,33.5539669 8.2244591,33.6248248 8.27952665,33.7171439 C8.3345942,33.8094631 8.36212757,33.9187867 8.36212757,34.0451181 C8.36212757,34.2556705 8.27993238,34.4293737 8.11553955,34.5662327 C7.95114672,34.7030918 7.71994746,34.7715203 7.42193484,34.7715203 C7.01864602,34.7715203 6.69553392,34.6451907 6.45258885,34.3925279 Z M8.82857977,33.5057828 C8.82857977,33.2693162 8.87838276,33.0559327 8.97799024,32.8656257 C9.07759772,32.6753187 9.21890865,32.5246951 9.40192727,32.4137501 C9.5849459,32.3028052 9.79387552,32.2473336 10.0287224,32.2473336 C10.3996186,32.2473336 10.6927679,32.38662 10.9081792,32.665197 L10.6603765,32.8887054 C10.5097505,32.6830119 10.3056797,32.5801667 10.0481579,32.5801667 C9.79711469,32.5801667 9.59587821,32.6668158 9.44444245,32.8401166 C9.29300669,33.0134174 9.21728994,33.2353039 9.21728994,33.5057828 C9.21728994,33.7762616 9.29341159,33.9989579 9.44565717,34.1738784 C9.59790275,34.3487988 9.79873433,34.4362578 10.0481579,34.4362578 C10.2992012,34.4362578 10.503272,34.3317929 10.6603765,34.1228602 L10.9081792,34.3536568 C10.6927679,34.6322339 10.3996186,34.7715203 10.0287224,34.7715203 C9.67564226,34.7715203 9.38735176,34.6508594 9.16384229,34.4095339 C8.94033283,34.1682085 8.82857977,33.8669611 8.82857977,33.5057828 Z M11.4377968,34.1422957 C11.3422384,33.9511789 11.2944599,33.7390101 11.2944599,33.5057828 C11.2944599,33.2725555 11.3422384,33.0611965 11.4377968,32.8716993 C11.5333552,32.6822022 11.6722367,32.5307687 11.8544455,32.4173943 C12.0366543,32.3040199 12.2467987,32.2473336 12.4848848,32.2473336 C12.722971,32.2473336 12.9331153,32.3040199 13.1153241,32.4173943 C13.2975329,32.5307687 13.4360096,32.6822022 13.5307581,32.8716993 C13.6255067,33.0611965 13.6728803,33.2725555 13.6728803,33.5057828 C13.6728803,33.7390101 13.6255067,33.9511789 13.5307581,34.1422957 C13.4360096,34.3334125 13.2975329,34.4860607 13.1153241,34.6002449 C12.9331153,34.714429 12.722971,34.7715203 12.4848848,34.7715203 C12.2467987,34.7715203 12.0366543,34.714429 11.8544455,34.6002449 C11.6722367,34.4860607 11.5333552,34.3334125 11.4377968,34.1422957 Z M11.688029,33.5057828 C11.688029,33.7649242 11.7592918,33.9847862 11.9018196,34.1653754 C12.0443473,34.3459645 12.2387005,34.4362578 12.4848848,34.4362578 C12.6500875,34.4362578 12.7938278,34.3925283 12.9161102,34.3050681 C13.0383925,34.2176078 13.1294956,34.1046401 13.189422,33.9661614 C13.2493485,33.8276827 13.2793112,33.6742247 13.2793112,33.5057828 C13.2793112,33.3389605 13.2493485,33.1867172 13.189422,33.0490483 C13.1294956,32.9113795 13.0383925,32.7988166 12.9161102,32.7113564 C12.7938278,32.6238961 12.6500875,32.5801667 12.4848848,32.5801667 C12.3196822,32.5801667 12.1755369,32.6238961 12.0524448,32.7113564 C11.9293526,32.7988166 11.8378446,32.9117844 11.7779182,33.050263 C11.7179917,33.1887417 11.688029,33.3405801 11.688029,33.5057828 Z M14.2802399,34.7107843 L14.2802399,32.3080696 L14.651944,32.3080696 L14.651944,32.6554793 C14.7458828,32.5437245 14.8705927,32.4477627 15.0260776,32.3675908 C15.1815624,32.2874189 15.3443332,32.2473336 15.5143947,32.2473336 C16.0213401,32.2473336 16.274809,32.5064711 16.274809,33.0247539 L16.274809,34.7107843 L15.9055343,34.7107843 L15.9055343,33.1389376 C15.9055343,32.9364833 15.8585657,32.792743 15.7646269,32.7077122 C15.6706881,32.6226814 15.5370703,32.5801667 15.3637695,32.5801667 C15.224481,32.5801667 15.0904583,32.6166079 14.9616974,32.6894914 C14.8329366,32.7623749 14.7296865,32.8506437 14.651944,32.9543002 L14.651944,34.7107843 L14.2802399,34.7107843 Z M16.6999607,32.6360438 L16.6999607,32.3080696 L17.0983887,32.3080696 L17.0983887,31.6496917 L17.4773811,31.6496917 L17.4773811,32.3080696 L17.9656982,32.3080696 L17.9656982,32.6360438 L17.4773811,32.6360438 L17.4773811,34.1277191 C17.4773811,34.2216578 17.4976262,34.2965648 17.5381171,34.3524421 C17.5786079,34.4083195 17.6377236,34.4362578 17.7154661,34.4362578 C17.8256012,34.4362578 17.9106307,34.4014362 17.9705571,34.3317919 L18.0798819,34.6160362 C17.9713664,34.7196928 17.8239819,34.7715203 17.637724,34.7715203 C17.4611839,34.7715203 17.3271613,34.7225271 17.235652,34.6245392 C17.1441426,34.5265514 17.0983887,34.3876699 17.0983887,34.2078905 L17.0983887,32.6360438 L16.6999607,32.6360438 Z M18.490457,34.1422957 C18.3948986,33.9511789 18.3471201,33.7390101 18.3471201,33.5057828 C18.3471201,33.2725555 18.3948986,33.0611965 18.490457,32.8716993 C18.5860154,32.6822022 18.7248969,32.5307687 18.9071057,32.4173943 C19.0893145,32.3040199 19.2994588,32.2473336 19.537545,32.2473336 C19.7756312,32.2473336 19.9857755,32.3040199 20.1679843,32.4173943 C20.3501931,32.5307687 20.4886697,32.6822022 20.5834183,32.8716993 C20.6781669,33.0611965 20.7255405,33.2725555 20.7255405,33.5057828 C20.7255405,33.7390101 20.6781669,33.9511789 20.5834183,34.1422957 C20.4886697,34.3334125 20.3501931,34.4860607 20.1679843,34.6002449 C19.9857755,34.714429 19.7756312,34.7715203 19.537545,34.7715203 C19.2994588,34.7715203 19.0893145,34.714429 18.9071057,34.6002449 C18.7248969,34.4860607 18.5860154,34.3334125 18.490457,34.1422957 Z M18.7406891,33.5057828 C18.7406891,33.7649242 18.811952,33.9847862 18.9544797,34.1653754 C19.0970075,34.3459645 19.2913607,34.4362578 19.537545,34.4362578 C19.7027476,34.4362578 19.846488,34.3925283 19.9687703,34.3050681 C20.0910527,34.2176078 20.1821557,34.1046401 20.2420822,33.9661614 C20.3020086,33.8276827 20.3319714,33.6742247 20.3319714,33.5057828 C20.3319714,33.3389605 20.3020086,33.1867172 20.2420822,33.0490483 C20.1821557,32.9113795 20.0910527,32.7988166 19.9687703,32.7113564 C19.846488,32.6238961 19.7027476,32.5801667 19.537545,32.5801667 C19.3723423,32.5801667 19.2281971,32.6238961 19.1051049,32.7113564 C18.9820128,32.7988166 18.8905048,32.9117844 18.8305784,33.050263 C18.7706519,33.1887417 18.7406891,33.3405801 18.7406891,33.5057828 Z M21.1288273,34.3925279 L21.315894,34.1228602 C21.4017346,34.2200382 21.5159171,34.3018285 21.6584449,34.3682335 C21.8009726,34.4346385 21.9507865,34.4678405 22.107891,34.4678405 C22.2876704,34.4678405 22.4281715,34.4297796 22.5293986,34.3536568 C22.6306257,34.2775341 22.6812385,34.1779281 22.6812385,34.0548359 C22.6812385,33.9770935 22.6537051,33.9114993 22.5986376,33.8580514 C22.54357,33.8046035 22.4723072,33.7633034 22.384847,33.73415 C22.2973868,33.7049966 22.20102,33.678273 22.0957438,33.6539785 C21.9904676,33.629684 21.8847881,33.6013409 21.7787021,33.5689482 C21.6726161,33.5365555 21.5758444,33.4968751 21.4883842,33.4499057 C21.4009239,33.4029363 21.3296611,33.3361274 21.2745936,33.249477 C21.219526,33.1628266 21.1919927,33.0595765 21.1919927,32.9397236 C21.1919927,32.7421283 21.2713535,32.577333 21.4300776,32.4453328 C21.5888018,32.3133327 21.8066392,32.2473336 22.0835966,32.2473336 C22.4496339,32.2473336 22.7460224,32.3639455 22.9727711,32.5971728 L22.800281,32.8546932 C22.7257778,32.7639938 22.625767,32.6907064 22.5002453,32.6348291 C22.3747237,32.5789517 22.2358422,32.5510134 22.0835966,32.5510134 C21.9232529,32.5510134 21.7944939,32.5870497 21.6973159,32.6591234 C21.6001379,32.7311971 21.5515496,32.8214904 21.5515496,32.9300058 C21.5515496,32.9996501 21.5790829,33.0583609 21.6341505,33.1061401 C21.689218,33.1539193 21.760076,33.1911704 21.8467264,33.2178943 C21.9333768,33.2446183 22.0297435,33.2697222 22.1358296,33.2932069 C22.2419156,33.3166916 22.348,33.3454397 22.454086,33.379452 C22.560172,33.4134643 22.6565388,33.4551692 22.7431892,33.5045681 C22.8298396,33.5539669 22.9006975,33.6248248 22.9557651,33.7171439 C23.0108326,33.8094631 23.038366,33.9187867 23.038366,34.0451181 C23.038366,34.2556705 22.9561708,34.4293737 22.791778,34.5662327 C22.6273851,34.7030918 22.3961859,34.7715203 22.0981733,34.7715203 C21.6948844,34.7715203 21.3717723,34.6451907 21.1288273,34.3925279 Z M24.7924206,33.5057828 C24.7924206,33.2757948 24.8430334,33.0648406 24.9442605,32.872914 C25.0454877,32.6809874 25.1867986,32.5287441 25.3681976,32.4161796 C25.5495966,32.303615 25.7528576,32.2473336 25.9779867,32.2473336 C26.2144532,32.2473336 26.4209534,32.3048297 26.5974935,32.4198237 C26.7740336,32.5348177 26.9072465,32.6890855 26.9971361,32.8826318 C27.0870258,33.076178 27.13197,33.2944204 27.13197,33.5373655 L27.13197,33.6321136 L25.1908486,33.6321136 C25.2054253,33.8685801 25.2900499,34.0661725 25.4447249,34.2248966 C25.5993999,34.3836207 25.8014462,34.4629816 26.0508698,34.4629816 C26.191778,34.4629816 26.3274202,34.436258 26.4578008,34.3828101 C26.5881813,34.3293622 26.7019589,34.2532405 26.7991369,34.1544429 L26.9764859,34.3973867 C26.7222034,34.6468103 26.4039501,34.7715203 26.0217165,34.7715203 C25.6621578,34.7715203 25.3673889,34.6540986 25.1374009,34.4192517 C24.9074129,34.1844048 24.7924206,33.8799182 24.7924206,33.5057828 Z M25.1859897,33.3527282 L26.7626953,33.3527282 C26.7610757,33.260409 26.7444747,33.1689011 26.7128918,33.0782016 C26.681309,32.9875021 26.6347452,32.9024726 26.5731991,32.8231105 C26.511653,32.7437485 26.4290529,32.679369 26.3253964,32.6299702 C26.2217398,32.5805713 26.1043181,32.5558723 25.9731278,32.5558723 C25.8500356,32.5558723 25.7382825,32.5801664 25.6378653,32.6287555 C25.537448,32.6773445 25.4560626,32.7409141 25.3937067,32.8194664 C25.3313508,32.8980186 25.2823576,32.9830481 25.2467256,33.0745574 C25.2110937,33.1660667 25.1908486,33.2587894 25.1859897,33.3527282 Z M27.7344707,34.7107843 L27.7344707,32.3080696 L28.1061748,32.3080696 L28.1061748,32.6554793 C28.1709602,32.5615405 28.2770446,32.4700326 28.4244313,32.3809527 C28.571818,32.2918729 28.7264907,32.2473336 28.8884541,32.2473336 C29.0617549,32.2473336 29.2026609,32.2890385 29.3111764,32.3724497 C29.4196918,32.4558608 29.4925743,32.5639698 29.5298258,32.6967797 C29.6027094,32.5785465 29.7144624,32.4740817 29.8650884,32.3833822 C30.0157143,32.2926827 30.1728164,32.2473336 30.3363995,32.2473336 C30.5566697,32.2473336 30.7234894,32.308069 30.8368638,32.4295415 C30.9502382,32.551014 31.0069245,32.7324103 31.0069245,32.9737357 L31.0069245,34.7107843 L30.6352204,34.7107843 L30.6352204,33.0782016 C30.6352204,32.7461767 30.4870261,32.5801667 30.1906331,32.5801667 C30.0707802,32.5801667 29.9509291,32.616203 29.8310762,32.6882767 C29.7112233,32.7603504 29.6189056,32.8474044 29.5541202,32.9494413 L29.5541202,34.7107843 L29.1824161,34.7107843 L29.1824161,33.0782016 C29.1824161,32.7461767 29.0342219,32.5801667 28.7378289,32.5801667 C28.6212152,32.5801667 28.5037935,32.6170128 28.3855603,32.6907061 C28.267327,32.7643995 28.1741995,32.8522633 28.1061748,32.9543002 L28.1061748,34.7107843 L27.7344707,34.7107843 Z M32.7148198,32.6360438 L32.7148198,32.3080696 L33.1132477,32.3080696 L33.1132477,31.6496917 L33.4922402,31.6496917 L33.4922402,32.3080696 L33.9805573,32.3080696 L33.9805573,32.6360438 L33.4922402,32.6360438 L33.4922402,34.1277191 C33.4922402,34.2216578 33.5124853,34.2965648 33.5529761,34.3524421 C33.593467,34.4083195 33.6525827,34.4362578 33.7303251,34.4362578 C33.8404602,34.4362578 33.9254897,34.4014362 33.9854162,34.3317919 L34.0947409,34.6160362 C33.9862255,34.7196928 33.838841,34.7715203 33.6525831,34.7715203 C33.476043,34.7715203 33.3420203,34.7225271 33.250511,34.6245392 C33.1590017,34.5265514 33.1132477,34.3876699 33.1132477,34.2078905 L33.1132477,32.6360438 L32.7148198,32.6360438 Z M34.505316,34.1422957 C34.4097576,33.9511789 34.3619792,33.7390101 34.3619792,33.5057828 C34.3619792,33.2725555 34.4097576,33.0611965 34.505316,32.8716993 C34.6008744,32.6822022 34.739756,32.5307687 34.9219648,32.4173943 C35.1041736,32.3040199 35.3143179,32.2473336 35.5524041,32.2473336 C35.7904902,32.2473336 36.0006346,32.3040199 36.1828434,32.4173943 C36.3650522,32.5307687 36.5035288,32.6822022 36.5982774,32.8716993 C36.693026,33.0611965 36.7403995,33.2725555 36.7403995,33.5057828 C36.7403995,33.7390101 36.693026,33.9511789 36.5982774,34.1422957 C36.5035288,34.3334125 36.3650522,34.4860607 36.1828434,34.6002449 C36.0006346,34.714429 35.7904902,34.7715203 35.5524041,34.7715203 C35.3143179,34.7715203 35.1041736,34.714429 34.9219648,34.6002449 C34.739756,34.4860607 34.6008744,34.3334125 34.505316,34.1422957 Z M34.7555482,33.5057828 C34.7555482,33.7649242 34.826811,33.9847862 34.9693388,34.1653754 C35.1118666,34.3459645 35.3062197,34.4362578 35.5524041,34.4362578 C35.7176067,34.4362578 35.8613471,34.3925283 35.9836294,34.3050681 C36.1059118,34.2176078 36.1970148,34.1046401 36.2569413,33.9661614 C36.3168677,33.8276827 36.3468305,33.6742247 36.3468305,33.5057828 C36.3468305,33.3389605 36.3168677,33.1867172 36.2569413,33.0490483 C36.1970148,32.9113795 36.1059118,32.7988166 35.9836294,32.7113564 C35.8613471,32.6238961 35.7176067,32.5801667 35.5524041,32.5801667 C35.3872014,32.5801667 35.2430562,32.6238961 35.119964,32.7113564 C34.9968718,32.7988166 34.9053639,32.9117844 34.8454374,33.050263 C34.785511,33.1887417 34.7555482,33.3405801 34.7555482,33.5057828 Z M37.2068517,33.5106417 C37.2068517,33.1300277 37.3064577,32.8243264 37.5056727,32.5935286 C37.7048876,32.3627308 37.9624056,32.2473336 38.2782341,32.2473336 C38.4385779,32.2473336 38.5887967,32.2845846 38.728895,32.3590878 C38.8689933,32.4335909 38.9884395,32.5372459 39.0872372,32.6700559 L39.0872372,31.3921712 L39.4613707,31.3921712 L39.4613707,34.7107843 L39.0872372,34.7107843 L39.0872372,34.3536568 C38.9932984,34.4799883 38.8758767,34.5812139 38.7349686,34.6573367 C38.5940605,34.7334595 38.4418172,34.7715203 38.2782341,34.7715203 C37.9607859,34.7715203 37.7028631,34.6577427 37.504458,34.4301842 C37.3060528,34.2026256 37.2068517,33.8961145 37.2068517,33.5106417 Z M37.8044936,32.8425461 C37.6652051,33.0158469 37.5955619,33.2385432 37.5955619,33.5106417 C37.5955619,33.7827401 37.6648002,34.0050315 37.8032789,34.1775225 C37.9417576,34.3500135 38.130847,34.4362578 38.3705528,34.4362578 C38.5147002,34.4362578 38.6535817,34.3994116 38.7872015,34.3257183 C38.9208213,34.252025 39.0208322,34.1617317 39.0872372,34.0548359 L39.0872372,32.9688769 C39.0208322,32.8603614 38.9204164,32.7684486 38.7859868,32.6931356 C38.6515572,32.6178226 38.5130806,32.5801667 38.3705528,32.5801667 C38.1324666,32.5801667 37.9437821,32.6676256 37.8044936,32.8425461 Z M40.2096378,34.1422957 C40.1140794,33.9511789 40.0663009,33.7390101 40.0663009,33.5057828 C40.0663009,33.2725555 40.1140794,33.0611965 40.2096378,32.8716993 C40.3051962,32.6822022 40.4440777,32.5307687 40.6262865,32.4173943 C40.8084953,32.3040199 41.0186397,32.2473336 41.2567258,32.2473336 C41.494812,32.2473336 41.7049563,32.3040199 41.8871651,32.4173943 C42.0693739,32.5307687 42.2078506,32.6822022 42.3025991,32.8716993 C42.3973477,33.0611965 42.4447213,33.2725555 42.4447213,33.5057828 C42.4447213,33.7390101 42.3973477,33.9511789 42.3025991,34.1422957 C42.2078506,34.3334125 42.0693739,34.4860607 41.8871651,34.6002449 C41.7049563,34.714429 41.494812,34.7715203 41.2567258,34.7715203 C41.0186397,34.7715203 40.8084953,34.714429 40.6262865,34.6002449 C40.4440777,34.4860607 40.3051962,34.3334125 40.2096378,34.1422957 Z M40.45987,33.5057828 C40.45987,33.7649242 40.5311328,33.9847862 40.6736606,34.1653754 C40.8161884,34.3459645 41.0105415,34.4362578 41.2567258,34.4362578 C41.4219285,34.4362578 41.5656688,34.3925283 41.6879512,34.3050681 C41.8102335,34.2176078 41.9013366,34.1046401 41.961263,33.9661614 C42.0211895,33.8276827 42.0511522,33.6742247 42.0511522,33.5057828 C42.0511522,33.3389605 42.0211895,33.1867172 41.961263,33.0490483 C41.9013366,32.9113795 41.8102335,32.7988166 41.6879512,32.7113564 C41.5656688,32.6238961 41.4219285,32.5801667 41.2567258,32.5801667 C41.0915232,32.5801667 40.9473779,32.6238961 40.8242858,32.7113564 C40.7011936,32.7988166 40.6096857,32.9117844 40.5497592,33.050263 C40.4898328,33.1887417 40.45987,33.3405801 40.45987,33.5057828 Z M42.8480081,34.3925279 L43.0350749,34.1228602 C43.1209155,34.2200382 43.2350979,34.3018285 43.3776257,34.3682335 C43.5201535,34.4346385 43.6699674,34.4678405 43.8270718,34.4678405 C44.0068512,34.4678405 44.1473523,34.4297796 44.2485794,34.3536568 C44.3498065,34.2775341 44.4004193,34.1779281 44.4004193,34.0548359 C44.4004193,33.9770935 44.372886,33.9114993 44.3178184,33.8580514 C44.2627509,33.8046035 44.1914881,33.7633034 44.1040278,33.73415 C44.0165676,33.7049966 43.9202008,33.678273 43.8149247,33.6539785 C43.7096485,33.629684 43.6039689,33.6013409 43.4978829,33.5689482 C43.3917969,33.5365555 43.2950252,33.4968751 43.207565,33.4499057 C43.1201048,33.4029363 43.048842,33.3361274 42.9937744,33.249477 C42.9387069,33.1628266 42.9111735,33.0595765 42.9111735,32.9397236 C42.9111735,32.7421283 42.9905344,32.577333 43.1492585,32.4453328 C43.3079826,32.3133327 43.5258201,32.2473336 43.8027775,32.2473336 C44.1688147,32.2473336 44.4652032,32.3639455 44.691952,32.5971728 L44.5194618,32.8546932 C44.4449587,32.7639938 44.3449478,32.6907064 44.2194262,32.6348291 C44.0939046,32.5789517 43.955023,32.5510134 43.8027775,32.5510134 C43.6424337,32.5510134 43.5136748,32.5870497 43.4164967,32.6591234 C43.3193187,32.7311971 43.2707304,32.8214904 43.2707304,32.9300058 C43.2707304,32.9996501 43.2982638,33.0583609 43.3533313,33.1061401 C43.4083989,33.1539193 43.4792568,33.1911704 43.5659072,33.2178943 C43.6525576,33.2446183 43.7489244,33.2697222 43.8550104,33.2932069 C43.9610964,33.3166916 44.0671808,33.3454397 44.1732668,33.379452 C44.2793529,33.4134643 44.3757196,33.4551692 44.46237,33.5045681 C44.5490204,33.5539669 44.6198784,33.6248248 44.6749459,33.7171439 C44.7300135,33.8094631 44.7575468,33.9187867 44.7575468,34.0451181 C44.7575468,34.2556705 44.6753516,34.4293737 44.5109588,34.5662327 C44.346566,34.7030918 44.1153667,34.7715203 43.8173541,34.7715203 C43.4140653,34.7715203 43.0909532,34.6451907 42.8480081,34.3925279 Z M46.6549383,34.1422957 C46.5593799,33.9511789 46.5116015,33.7390101 46.5116015,33.5057828 C46.5116015,33.2725555 46.5593799,33.0611965 46.6549383,32.8716993 C46.7504967,32.6822022 46.8893783,32.5307687 47.0715871,32.4173943 C47.2537959,32.3040199 47.4639402,32.2473336 47.7020264,32.2473336 C47.9401125,32.2473336 48.1502569,32.3040199 48.3324657,32.4173943 C48.5146745,32.5307687 48.6531511,32.6822022 48.7478997,32.8716993 C48.8426483,33.0611965 48.8900218,33.2725555 48.8900218,33.5057828 C48.8900218,33.7390101 48.8426483,33.9511789 48.7478997,34.1422957 C48.6531511,34.3334125 48.5146745,34.4860607 48.3324657,34.6002449 C48.1502569,34.714429 47.9401125,34.7715203 47.7020264,34.7715203 C47.4639402,34.7715203 47.2537959,34.714429 47.0715871,34.6002449 C46.8893783,34.4860607 46.7504967,34.3334125 46.6549383,34.1422957 Z M46.9051705,33.5057828 C46.9051705,33.7649242 46.9764333,33.9847862 47.1189611,34.1653754 C47.2614889,34.3459645 47.455842,34.4362578 47.7020264,34.4362578 C47.867229,34.4362578 48.0109694,34.3925283 48.1332517,34.3050681 C48.2555341,34.2176078 48.3466371,34.1046401 48.4065636,33.9661614 C48.46649,33.8276827 48.4964528,33.6742247 48.4964528,33.5057828 C48.4964528,33.3389605 48.46649,33.1867172 48.4065636,33.0490483 C48.3466371,32.9113795 48.2555341,32.7988166 48.1332517,32.7113564 C48.0109694,32.6238961 47.867229,32.5801667 47.7020264,32.5801667 C47.5368237,32.5801667 47.3926785,32.6238961 47.2695863,32.7113564 C47.1464941,32.7988166 47.0549862,32.9117844 46.9950597,33.050263 C46.9351333,33.1887417 46.9051705,33.3405801 46.9051705,33.5057828 Z M49.2933086,34.3925279 L49.4803754,34.1228602 C49.566216,34.2200382 49.6803985,34.3018285 49.8229262,34.3682335 C49.965454,34.4346385 50.1152679,34.4678405 50.2723724,34.4678405 C50.4521517,34.4678405 50.5926529,34.4297796 50.69388,34.3536568 C50.7951071,34.2775341 50.8457199,34.1779281 50.8457199,34.0548359 C50.8457199,33.9770935 50.8181865,33.9114993 50.763119,33.8580514 C50.7080514,33.8046035 50.6367886,33.7633034 50.5493284,33.73415 C50.4618681,33.7049966 50.3655014,33.678273 50.2602252,33.6539785 C50.154949,33.629684 50.0492695,33.6013409 49.9431835,33.5689482 C49.8370974,33.5365555 49.7403258,33.4968751 49.6528655,33.4499057 C49.5654053,33.4029363 49.4941425,33.3361274 49.4390749,33.249477 C49.3840074,33.1628266 49.356474,33.0595765 49.356474,32.9397236 C49.356474,32.7421283 49.4358349,32.577333 49.594559,32.4453328 C49.7532831,32.3133327 49.9711206,32.2473336 50.248078,32.2473336 C50.6141152,32.2473336 50.9105038,32.3639455 51.1372525,32.5971728 L50.9647624,32.8546932 C50.8902592,32.7639938 50.7902483,32.6907064 50.6647267,32.6348291 C50.5392051,32.5789517 50.4003236,32.5510134 50.248078,32.5510134 C50.0877342,32.5510134 49.9589753,32.5870497 49.8617973,32.6591234 C49.7646192,32.7311971 49.7160309,32.8214904 49.7160309,32.9300058 C49.7160309,32.9996501 49.7435643,33.0583609 49.7986319,33.1061401 C49.8536994,33.1539193 49.9245573,33.1911704 50.0112077,33.2178943 C50.0978581,33.2446183 50.1942249,33.2697222 50.3003109,33.2932069 C50.4063969,33.3166916 50.5124814,33.3454397 50.6185674,33.379452 C50.7246534,33.4134643 50.8210202,33.4551692 50.9076706,33.5045681 C50.994321,33.5539669 51.0651789,33.6248248 51.1202464,33.7171439 C51.175314,33.8094631 51.2028473,33.9187867 51.2028473,34.0451181 C51.2028473,34.2556705 51.1206522,34.4293737 50.9562593,34.5662327 C50.7918665,34.7030918 50.5606672,34.7715203 50.2626546,34.7715203 C49.8593658,34.7715203 49.5362537,34.6451907 49.2933086,34.3925279 Z M53.0978094,34.7107843 L53.0978094,31.3921712 L53.4695135,31.3921712 L53.4695135,34.7107843 L53.0978094,34.7107843 Z M54.2153512,34.0038177 L54.2153512,32.3080696 L54.5870553,32.3080696 L54.5870553,33.8896341 C54.5870553,34.0904687 54.6332142,34.2317796 54.7255333,34.3135711 C54.8178524,34.3953626 54.95228,34.4362578 55.1288201,34.4362578 C55.2681086,34.4362578 55.4025362,34.4014362 55.5321069,34.3317919 C55.6616776,34.2621476 55.7629032,34.1763083 55.8357867,34.0742714 L55.8357867,32.3080696 L56.2099202,32.3080696 L56.2099202,34.7107843 L55.8357867,34.7107843 L55.8357867,34.3730924 C55.7353694,34.4864667 55.6098497,34.5812139 55.4592237,34.6573367 C55.3085978,34.7334595 55.1490662,34.7715203 54.9806243,34.7715203 C54.4704397,34.7715203 54.2153512,34.515622 54.2153512,34.0038177 Z M56.8148505,33.496065 C56.8148505,33.1154511 56.9136466,32.8121792 57.111242,32.5862403 C57.3088373,32.3603014 57.567165,32.2473336 57.8862329,32.2473336 C58.0465766,32.2473336 58.1967954,32.2845846 58.3368937,32.3590878 C58.476992,32.4335909 58.5964382,32.5372459 58.6952359,32.6700559 L58.6952359,32.3080696 L59.0693694,32.3080696 L59.0693694,34.6767722 C59.0693694,34.8597908 59.0377871,35.0185125 58.9746213,35.1529421 C58.9114556,35.2873717 58.8244016,35.3922415 58.7134567,35.4675544 C58.6025118,35.5428674 58.481446,35.5979341 58.3502556,35.6327563 C58.2190653,35.6675784 58.0757298,35.6849892 57.920245,35.6849892 C57.7096926,35.6849892 57.5303209,35.6590754 57.3821244,35.6072471 C57.2339279,35.5554189 57.0901875,35.4606717 56.950899,35.3230028 L57.1379658,35.0533352 C57.2367634,35.1683292 57.3481116,35.2509292 57.4720136,35.3011379 C57.5959156,35.3513465 57.7453246,35.3764505 57.920245,35.3764505 C58.1405152,35.3764505 58.3247458,35.3189543 58.4729423,35.2039603 C58.6211388,35.0889663 58.6952359,34.9132387 58.6952359,34.6767722 L58.6952359,34.3123564 C58.6012971,34.4403075 58.4834706,34.5435576 58.3417526,34.6221098 C58.2000346,34.700662 58.0481962,34.7399376 57.8862329,34.7399376 C57.567165,34.7399376 57.3088373,34.6281845 57.111242,34.4046751 C56.9136466,34.1811656 56.8148505,33.8782986 56.8148505,33.496065 Z M57.2035606,33.496065 C57.2035606,33.7649242 57.2727989,33.9839764 57.4112776,34.1532282 C57.5497563,34.3224799 57.7388457,34.4071045 57.9785515,34.4071045 C58.1210793,34.4071045 58.2587461,34.3694486 58.3915561,34.2941356 C58.5243661,34.2188226 58.6255917,34.1269098 58.6952359,34.0183943 L58.6952359,32.964018 C58.6255917,32.8571221 58.5239612,32.766424 58.3903414,32.6919209 C58.2567216,32.6174177 58.1194597,32.5801667 57.9785515,32.5801667 C57.7388457,32.5801667 57.5497563,32.6647913 57.4112776,32.834043 C57.2727989,33.0032948 57.2035606,33.2239665 57.2035606,33.496065 Z M59.6840174,33.9746644 C59.6840174,33.8450937 59.7083115,33.7280769 59.7569006,33.6236106 C59.8054896,33.5191442 59.8698691,33.4357343 59.9500409,33.3733784 C60.0302128,33.3110225 60.1188864,33.2636489 60.2160645,33.2312562 C60.3132425,33.1988635 60.4144681,33.1826675 60.5197443,33.1826675 C60.8598674,33.1826675 61.1254833,33.2903715 61.3166001,33.5057828 L61.3166001,33.0733427 C61.3166001,32.9178579 61.2599138,32.7951724 61.1465394,32.7052828 C61.0331651,32.6153931 60.8874002,32.5704489 60.7092405,32.5704489 C60.4241849,32.5704489 60.1788141,32.682202 59.9731206,32.9057115 L59.798201,32.6457615 C60.0524835,32.3801416 60.3731662,32.2473336 60.7602587,32.2473336 C60.8930687,32.2473336 61.0141345,32.2627199 61.1234598,32.2934929 C61.232785,32.324266 61.3303665,32.3708298 61.4162071,32.4331857 C61.5020477,32.4955416 61.5692615,32.5801662 61.6178505,32.687062 C61.6664395,32.7939578 61.6907337,32.9178579 61.6907337,33.0587661 L61.6907337,34.7107843 L61.3166001,34.7107843 L61.3166001,34.4362578 C61.1173852,34.6597672 60.8517692,34.7715203 60.5197443,34.7715203 C60.4177073,34.7715203 60.3176965,34.7541095 60.2197086,34.7192873 C60.1217208,34.6844652 60.0322373,34.6346622 59.9512556,34.5698769 C59.870274,34.5050915 59.8054896,34.4212767 59.7569006,34.31843 C59.7083115,34.2155832 59.6840174,34.1009959 59.6840174,33.9746644 Z M60.0630098,33.9746644 C60.0630098,34.1285296 60.1184814,34.2548592 60.2294264,34.3536568 C60.3403713,34.4524545 60.4841116,34.5018526 60.6606517,34.5018526 C60.7934617,34.5018526 60.9185765,34.4763437 61.036,34.4253253 C61.1534234,34.3743068 61.2469559,34.3002097 61.3166001,34.2030317 L61.3166001,33.7462972 C61.2469559,33.6523584 61.1534234,33.5798809 61.036,33.5288624 C60.9185765,33.477844 60.7934617,33.4523351 60.6606517,33.4523351 C60.4857313,33.4523351 60.3423958,33.5013283 60.2306411,33.5993162 C60.1188864,33.697304 60.0630098,33.8224188 60.0630098,33.9746644 Z M62.4414302,34.7107843 L62.4414302,32.3080696 L62.8131343,32.3080696 L62.8131343,32.6919209 C62.9167909,32.5591109 63.0374518,32.4526216 63.1751206,32.3724497 C63.3127895,32.2922778 63.4593642,32.2521925 63.614849,32.2521925 L63.614849,32.6360438 C63.5565422,32.6295652 63.5087637,32.626326 63.4715121,32.626326 C63.3565181,32.626326 63.2318082,32.6656015 63.0973786,32.7441538 C62.962949,32.822706 62.8682018,32.9113797 62.8131343,33.0101773 L62.8131343,34.7107843 L62.4414302,34.7107843 Z M63.9403938,33.5057828 C63.9403938,33.2757948 63.9910066,33.0648406 64.0922337,32.872914 C64.1934608,32.6809874 64.3347717,32.5287441 64.5161707,32.4161796 C64.6975697,32.303615 64.9008307,32.2473336 65.1259598,32.2473336 C65.3624263,32.2473336 65.5689266,32.3048297 65.7454666,32.4198237 C65.9220067,32.5348177 66.0552196,32.6890855 66.1451093,32.8826318 C66.234999,33.076178 66.2799431,33.2944204 66.2799431,33.5373655 L66.2799431,33.6321136 L64.3388217,33.6321136 C64.3533984,33.8685801 64.438023,34.0661725 64.592698,34.2248966 C64.7473731,34.3836207 64.9494194,34.4629816 65.198843,34.4629816 C65.3397511,34.4629816 65.4753934,34.436258 65.6057739,34.3828101 C65.7361544,34.3293622 65.849932,34.2532405 65.94711,34.1544429 L66.1244591,34.3973867 C65.8701766,34.6468103 65.5519233,34.7715203 65.1696897,34.7715203 C64.810131,34.7715203 64.5153621,34.6540986 64.2853741,34.4192517 C64.0553861,34.1844048 63.9403938,33.8799182 63.9403938,33.5057828 Z M64.3339628,33.3527282 L65.9106685,33.3527282 C65.9090488,33.260409 65.8924478,33.1689011 65.860865,33.0782016 C65.8292821,32.9875021 65.7827183,32.9024726 65.7211723,32.8231105 C65.6596262,32.7437485 65.5770261,32.679369 65.4733695,32.6299702 C65.369713,32.5805713 65.2522913,32.5558723 65.1211009,32.5558723 C64.9980088,32.5558723 64.8862557,32.5801664 64.7858384,32.6287555 C64.6854211,32.6773445 64.6040357,32.7409141 64.5416798,32.8194664 C64.4793239,32.8980186 64.4303307,32.9830481 64.3946988,33.0745574 C64.3590669,33.1660667 64.3388217,33.2587894 64.3339628,33.3527282 Z M66.6783711,34.3925279 L66.8654378,34.1228602 C66.9512784,34.2200382 67.0654609,34.3018285 67.2079887,34.3682335 C67.3505164,34.4346385 67.5003303,34.4678405 67.6574348,34.4678405 C67.8372142,34.4678405 67.9777153,34.4297796 68.0789424,34.3536568 C68.1801695,34.2775341 68.2307823,34.1779281 68.2307823,34.0548359 C68.2307823,33.9770935 68.2032489,33.9114993 68.1481814,33.8580514 C68.0931138,33.8046035 68.021851,33.7633034 67.9343908,33.73415 C67.8469306,33.7049966 67.7505638,33.678273 67.6452876,33.6539785 C67.5400114,33.629684 67.4343319,33.6013409 67.3282459,33.5689482 C67.2221599,33.5365555 67.1253882,33.4968751 67.037928,33.4499057 C66.9504677,33.4029363 66.8792049,33.3361274 66.8241374,33.249477 C66.7690698,33.1628266 66.7415365,33.0595765 66.7415365,32.9397236 C66.7415365,32.7421283 66.8208973,32.577333 66.9796214,32.4453328 C67.1383456,32.3133327 67.356183,32.2473336 67.6331404,32.2473336 C67.9991777,32.2473336 68.2955662,32.3639455 68.5223149,32.5971728 L68.3498248,32.8546932 C68.2753216,32.7639938 68.1753108,32.6907064 68.0497891,32.6348291 C67.9242675,32.5789517 67.785386,32.5510134 67.6331404,32.5510134 C67.4727967,32.5510134 67.3440377,32.5870497 67.2468597,32.6591234 C67.1496817,32.7311971 67.1010934,32.8214904 67.1010934,32.9300058 C67.1010934,32.9996501 67.1286267,33.0583609 67.1836943,33.1061401 C67.2387618,33.1539193 67.3096197,33.1911704 67.3962702,33.2178943 C67.4829206,33.2446183 67.5792873,33.2697222 67.6853733,33.2932069 C67.7914594,33.3166916 67.8975438,33.3454397 68.0036298,33.379452 C68.1097158,33.4134643 68.2060826,33.4551692 68.292733,33.5045681 C68.3793834,33.5539669 68.4502413,33.6248248 68.5053089,33.7171439 C68.5603764,33.8094631 68.5879098,33.9187867 68.5879098,34.0451181 C68.5879098,34.2556705 68.5057146,34.4293737 68.3413218,34.5662327 C68.1769289,34.7030918 67.9457297,34.7715203 67.647717,34.7715203 C67.2444282,34.7715203 66.9213161,34.6451907 66.6783711,34.3925279 Z M70.3273878,33.5057828 C70.3273878,33.1186903 70.4257791,32.8121792 70.6225646,32.5862403 C70.8193501,32.3603014 71.0772729,32.2473336 71.3963408,32.2473336 C71.5599238,32.2473336 71.7133818,32.2853944 71.8567194,32.3615172 C72.000057,32.43764 72.1170738,32.5388656 72.2077732,32.665197 L72.2077732,32.3080696 L72.5819068,32.3080696 L72.5819068,35.6266827 L72.2077732,35.6266827 L72.2077732,34.3463685 C72.1057363,34.4807981 71.9854803,34.5852629 71.8470016,34.6597661 C71.7085229,34.7342693 71.5583041,34.7715203 71.3963408,34.7715203 C71.0772729,34.7715203 70.8193501,34.656528 70.6225646,34.42654 C70.4257791,34.196552 70.3273878,33.889636 70.3273878,33.5057828 Z M70.9274591,32.8401166 C70.7897902,33.0117978 70.7209568,33.2336843 70.7209568,33.5057828 C70.7209568,33.7778813 70.7901951,34.0009825 70.9286738,34.1750931 C71.0671525,34.3492037 71.2546223,34.4362578 71.4910889,34.4362578 C71.6336166,34.4362578 71.7720933,34.3990067 71.9065229,34.3245036 C72.0409525,34.2500004 72.1413683,34.1584925 72.2077732,34.049977 L72.2077732,32.964018 C72.1413683,32.8571221 72.0409525,32.766424 71.9065229,32.6919209 C71.7720933,32.6174177 71.6336166,32.5801667 71.4910889,32.5801667 C71.2546223,32.5801667 71.0667476,32.6668158 70.9274591,32.8401166 Z M73.3277444,34.0038177 L73.3277444,32.3080696 L73.6994485,32.3080696 L73.6994485,33.8896341 C73.6994485,34.0904687 73.7456074,34.2317796 73.8379265,34.3135711 C73.9302457,34.3953626 74.0646732,34.4362578 74.2412133,34.4362578 C74.3805018,34.4362578 74.5149294,34.4014362 74.6445001,34.3317919 C74.7740708,34.2621476 74.8752964,34.1763083 74.94818,34.0742714 L74.94818,32.3080696 L75.3223135,32.3080696 L75.3223135,34.7107843 L74.94818,34.7107843 L74.94818,34.3730924 C74.8477627,34.4864667 74.7222429,34.5812139 74.571617,34.6573367 C74.420991,34.7334595 74.2614595,34.7715203 74.0930176,34.7715203 C73.5828329,34.7715203 73.3277444,34.515622 73.3277444,34.0038177 Z M75.9272437,33.5057828 C75.9272437,33.2757948 75.9778565,33.0648406 76.0790836,32.872914 C76.1803107,32.6809874 76.3216217,32.5287441 76.5030206,32.4161796 C76.6844196,32.303615 76.8876806,32.2473336 77.1128097,32.2473336 C77.3492763,32.2473336 77.5557765,32.3048297 77.7323166,32.4198237 C77.9088566,32.5348177 78.0420695,32.6890855 78.1319592,32.8826318 C78.2218489,33.076178 78.266793,33.2944204 78.266793,33.5373655 L78.266793,33.6321136 L76.3256716,33.6321136 C76.3402483,33.8685801 76.4248729,34.0661725 76.579548,34.2248966 C76.734223,34.3836207 76.9362693,34.4629816 77.1856929,34.4629816 C77.326601,34.4629816 77.4622433,34.436258 77.5926238,34.3828101 C77.7230044,34.3293622 77.8367819,34.2532405 77.93396,34.1544429 L78.111309,34.3973867 C77.8570265,34.6468103 77.5387732,34.7715203 77.1565396,34.7715203 C76.7969809,34.7715203 76.502212,34.6540986 76.272224,34.4192517 C76.042236,34.1844048 75.9272437,33.8799182 75.9272437,33.5057828 Z M76.3208127,33.3527282 L77.8975184,33.3527282 C77.8958987,33.260409 77.8792978,33.1689011 77.8477149,33.0782016 C77.816132,32.9875021 77.7695683,32.9024726 77.7080222,32.8231105 C77.6464761,32.7437485 77.563876,32.679369 77.4602194,32.6299702 C77.3565629,32.5805713 77.2391412,32.5558723 77.1079508,32.5558723 C76.9848587,32.5558723 76.8731056,32.5801664 76.7726883,32.6287555 C76.672271,32.6773445 76.5908856,32.7409141 76.5285297,32.8194664 C76.4661738,32.8980186 76.4171807,32.9830481 76.3815487,33.0745574 C76.3459168,33.1660667 76.3256717,33.2587894 76.3208127,33.3527282 Z M79.7973393,32.3080696 L80.205485,32.3080696 L81.0023409,34.2783442 L81.8016262,32.3080696 L82.204913,32.3080696 L81.2064137,34.7107843 L80.798268,34.7107843 L79.7973393,32.3080696 Z M82.5960526,34.1422957 C82.5004942,33.9511789 82.4527157,33.7390101 82.4527157,33.5057828 C82.4527157,33.2725555 82.5004942,33.0611965 82.5960526,32.8716993 C82.691611,32.6822022 82.8304925,32.5307687 83.0127013,32.4173943 C83.1949101,32.3040199 83.4050544,32.2473336 83.6431406,32.2473336 C83.8812268,32.2473336 84.0913711,32.3040199 84.2735799,32.4173943 C84.4557887,32.5307687 84.5942653,32.6822022 84.6890139,32.8716993 C84.7837625,33.0611965 84.8311361,33.2725555 84.8311361,33.5057828 C84.8311361,33.7390101 84.7837625,33.9511789 84.6890139,34.1422957 C84.5942653,34.3334125 84.4557887,34.4860607 84.2735799,34.6002449 C84.0913711,34.714429 83.8812268,34.7715203 83.6431406,34.7715203 C83.4050544,34.7715203 83.1949101,34.714429 83.0127013,34.6002449 C82.8304925,34.4860607 82.691611,34.3334125 82.5960526,34.1422957 Z M82.8462848,33.5057828 C82.8462848,33.7649242 82.9175476,33.9847862 83.0600753,34.1653754 C83.2026031,34.3459645 83.3969563,34.4362578 83.6431406,34.4362578 C83.8083433,34.4362578 83.9520836,34.3925283 84.074366,34.3050681 C84.1966483,34.2176078 84.2877513,34.1046401 84.3476778,33.9661614 C84.4076042,33.8276827 84.437567,33.6742247 84.437567,33.5057828 C84.437567,33.3389605 84.4076042,33.1867172 84.3476778,33.0490483 C84.2877513,32.9113795 84.1966483,32.7988166 84.074366,32.7113564 C83.9520836,32.6238961 83.8083433,32.5801667 83.6431406,32.5801667 C83.477938,32.5801667 83.3337927,32.6238961 83.2107005,32.7113564 C83.0876084,32.7988166 82.9961004,32.9117844 82.936174,33.050263 C82.8762475,33.1887417 82.8462848,33.3405801 82.8462848,33.5057828 Z M85.2975883,33.5057828 C85.2975883,33.2693162 85.3473913,33.0559327 85.4469987,32.8656257 C85.5466062,32.6753187 85.6879172,32.5246951 85.8709358,32.4137501 C86.0539544,32.3028052 86.262884,32.2473336 86.4977309,32.2473336 C86.8686271,32.2473336 87.1617764,32.38662 87.3771877,32.665197 L87.129385,32.8887054 C86.978759,32.6830119 86.7746882,32.5801667 86.5171664,32.5801667 C86.2661232,32.5801667 86.0648867,32.6668158 85.913451,32.8401166 C85.7620152,33.0134174 85.6862984,33.2353039 85.6862984,33.5057828 C85.6862984,33.7762616 85.7624201,33.9989579 85.9146657,34.1738784 C86.0669112,34.3487988 86.2677428,34.4362578 86.5171664,34.4362578 C86.7682097,34.4362578 86.9722805,34.3317929 87.129385,34.1228602 L87.3771877,34.3536568 C87.1617764,34.6322339 86.8686271,34.7715203 86.4977309,34.7715203 C86.1446508,34.7715203 85.8563603,34.6508594 85.6328508,34.4095339 C85.4093413,34.1682085 85.2975883,33.8669611 85.2975883,33.5057828 Z M87.7634684,33.5057828 C87.7634684,33.2757948 87.8140812,33.0648406 87.9153083,32.872914 C88.0165354,32.6809874 88.1578464,32.5287441 88.3392454,32.4161796 C88.5206444,32.303615 88.7239053,32.2473336 88.9490344,32.2473336 C89.185501,32.2473336 89.3920012,32.3048297 89.5685413,32.4198237 C89.7450814,32.5348177 89.8782943,32.6890855 89.9681839,32.8826318 C90.0580736,33.076178 90.1030178,33.2944204 90.1030178,33.5373655 L90.1030178,33.6321136 L88.1618964,33.6321136 C88.1764731,33.8685801 88.2610977,34.0661725 88.4157727,34.2248966 C88.5704477,34.3836207 88.772494,34.4629816 89.0219176,34.4629816 C89.1628257,34.4629816 89.298468,34.436258 89.4288486,34.3828101 C89.5592291,34.3293622 89.6730067,34.2532405 89.7701847,34.1544429 L89.9475337,34.3973867 C89.6932512,34.6468103 89.3749979,34.7715203 88.9927643,34.7715203 C88.6332056,34.7715203 88.3384367,34.6540986 88.1084487,34.4192517 C87.8784607,34.1844048 87.7634684,33.8799182 87.7634684,33.5057828 Z M88.1570375,33.3527282 L89.7337431,33.3527282 C89.7321235,33.260409 89.7155225,33.1689011 89.6839396,33.0782016 C89.6523568,32.9875021 89.605793,32.9024726 89.5442469,32.8231105 C89.4827008,32.7437485 89.4001007,32.679369 89.2964442,32.6299702 C89.1927876,32.5805713 89.0753659,32.5558723 88.9441756,32.5558723 C88.8210834,32.5558723 88.7093303,32.5801664 88.608913,32.6287555 C88.5084958,32.6773445 88.4271104,32.7409141 88.3647545,32.8194664 C88.3023986,32.8980186 88.2534054,32.9830481 88.2177734,33.0745574 C88.1821415,33.1660667 88.1618964,33.2587894 88.1570375,33.3527282 Z M88.2955155,31.9436538 L88.769256,31.2269694 L89.1263835,31.2269694 L89.6147006,31.9436538 L89.362039,31.9436538 L88.9490344,31.4164656 L88.5506065,31.9436538 L88.2955155,31.9436538 Z M91.6335641,32.3080696 L92.0417098,32.3080696 L92.8385656,34.2783442 L93.6378509,32.3080696 L94.0411377,32.3080696 L93.0426384,34.7107843 L92.6344928,34.7107843 L91.6335641,32.3080696 Z M94.2986582,33.9746644 C94.2986582,33.8450937 94.3229523,33.7280769 94.3715413,33.6236106 C94.4201304,33.5191442 94.4845098,33.4357343 94.5646817,33.3733784 C94.6448536,33.3110225 94.7335272,33.2636489 94.8307052,33.2312562 C94.9278833,33.1988635 95.0291089,33.1826675 95.1343851,33.1826675 C95.4745082,33.1826675 95.7401241,33.2903715 95.9312409,33.5057828 L95.9312409,33.0733427 C95.9312409,32.9178579 95.8745546,32.7951724 95.7611802,32.7052828 C95.6478058,32.6153931 95.502041,32.5704489 95.3238813,32.5704489 C95.0388257,32.5704489 94.7934549,32.682202 94.5877614,32.9057115 L94.4128418,32.6457615 C94.6671243,32.3801416 94.987807,32.2473336 95.3748995,32.2473336 C95.5077094,32.2473336 95.6287753,32.2627199 95.7381005,32.2934929 C95.8474258,32.324266 95.9450073,32.3708298 96.0308479,32.4331857 C96.1166885,32.4955416 96.1839023,32.5801662 96.2324913,32.687062 C96.2810803,32.7939578 96.3053744,32.9178579 96.3053744,33.0587661 L96.3053744,34.7107843 L95.9312409,34.7107843 L95.9312409,34.4362578 C95.7320259,34.6597672 95.46641,34.7715203 95.1343851,34.7715203 C95.0323481,34.7715203 94.9323372,34.7541095 94.8343494,34.7192873 C94.7363615,34.6844652 94.6468781,34.6346622 94.5658964,34.5698769 C94.4849147,34.5050915 94.4201304,34.4212767 94.3715413,34.31843 C94.3229523,34.2155832 94.2986582,34.1009959 94.2986582,33.9746644 Z M94.6776506,33.9746644 C94.6776506,34.1285296 94.7331222,34.2548592 94.8440671,34.3536568 C94.9550121,34.4524545 95.0987524,34.5018526 95.2752925,34.5018526 C95.4081025,34.5018526 95.5332173,34.4763437 95.6506407,34.4253253 C95.7680642,34.3743068 95.8615967,34.3002097 95.9312409,34.2030317 L95.9312409,33.7462972 C95.8615967,33.6523584 95.7680642,33.5798809 95.6506407,33.5288624 C95.5332173,33.477844 95.4081025,33.4523351 95.2752925,33.4523351 C95.100372,33.4523351 94.9570366,33.5013283 94.8452819,33.5993162 C94.7335271,33.697304 94.6776506,33.8224188 94.6776506,33.9746644 Z M95.056643,31.9436538 L95.7927629,31.2269694 L96.1790436,31.2269694 L95.3384579,31.9436538 L95.056643,31.9436538 Z" id="Descontosemtodososlugaresquevocv" fill="#000000"></path>
        </g>
        <g id="Group-2" transform="translate(11.666667, 8.235294)">
            <polygon id="Path-3" stroke="#000000" stroke-width="0.5" fill="#FFFF00" transform="translate(23.161765, 45.153959) scale(1, -1) rotate(6.000000) translate(-23.161765, -45.153959) " points="28.4803922 32.6608583 9.95098039 56.3373289 9.95098039 58.3961524 20.5882353 58.3961524 36.372549 38.8373289 35.6075416 31.9117647"></polygon>
            <circle id="Oval-Copy" stroke="#000000" stroke-width="0.5" fill="#FFFFFF" cx="32.4264706" cy="52.1568627" r="1.20098039"></circle>
            <rect id="Rectangle" stroke="#000000" stroke-width="0.5" fill="#FF0000" x="0" y="9.26470588" width="10.6372549" height="47.6960784" rx="1.37254902"></rect>
            <path d="M5.14705882,12.6960784 L4.46078431,11.7602496 C1.25816993,5.58377897 1.25816993,1.69489008 4.46078431,0.0935828877 C7.66339869,-0.592691622 9.03594771,2.49554367 8.57843137,9.35828877" id="Path-2" stroke="#000000" stroke-width="0.68627451"></path>
            <circle id="Oval" fill="#FFFFFF" cx="5.14705882" cy="12.3529412" r="1.37254902"></circle>
            <polygon id="Path-3" fill="#000000" points="29.1666667 8.57843137 10.6372549 32.254902 10.6372549 34.3137255 21.2745098 34.3137255 37.0588235 14.754902 36.372549 8.57843137"></polygon>
            <path d="M38.3955248,16.6817956 L37.7092503,15.7459667 C34.5066359,9.56949616 34.5066359,5.68060727 37.7092503,4.07930008 C40.9118647,3.39302557 42.2844137,6.48126086 41.8268973,13.344006" id="Path-2-Copy" stroke="#FF0000" stroke-width="0.68627451" transform="translate(38.609986, 10.333756) rotate(69.000000) translate(-38.609986, -10.333756) "></path>
            <path d="M39.1176471,60.3921569 L38.4313725,59.456328 C35.2287582,53.2798574 35.2287582,49.3909685 38.4313725,47.7896613 C41.6339869,47.1033868 43.0065359,50.1916221 42.5490196,57.0543672" id="Path-2-Copy-2" stroke="#000000" stroke-width="0.68627451" transform="translate(39.332108, 54.044118) scale(1, -1) rotate(79.000000) translate(-39.332108, -54.044118) "></path>
            <path d="M35.3431373,12.3529412 C35.4058302,12.7290989 35.9777256,13.5297525 37.0588235,14.754902 L36.7156863,12.3529412 C35.7379606,11.9767834 35.2804443,11.9767834 35.3431373,12.3529412 Z" id="Path-3" fill="#000000"></path>
            <circle id="Oval-Copy" stroke="#FFFFFF" stroke-width="0.5" fill="#FFFFFF" cx="32.4264706" cy="12.5245098" r="1.20098039"></circle>
        </g>
    </g>
</svg>