<?xml version="1.0" encoding="UTF-8"?>
<svg width="175px" height="76px" viewBox="0 0 175 76" version="1.1" xmlns="http://www.w3.org/2000/svg" xmlns:xlink="http://www.w3.org/1999/xlink">
    <!-- Generator: Sketch 54.1 (76490) - https://sketchapp.com -->
    <title>Logo-english Copy</title>
    <desc>Created with Sketch.</desc>
    <g id="Logo-english-Copy" stroke="none" stroke-width="1" fill="none" fill-rule="evenodd">
        <g id="Group" transform="translate(64.166667, 19.901961)" fill-rule="nonzero">
            <path d="M6.89705882,13.3823529 L6.89705882,20.9656863 L6.78011179,20.9950981 C6.52801095,21.0539218 6.16666902,21.1127451 5.69607843,21.1715686 C5.14705882,21.2401964 4.60947975,21.2745098 4.08333333,21.2745098 C3.55718691,21.2745098 3.09395625,21.2344775 2.69362745,21.1544118 C2.29329865,21.074346 1.95588373,20.9313725 1.68137255,20.7254902 C1.40686137,20.5196068 1.20098039,20.233662 1.06372549,19.8676471 C0.926469902,19.5016322 0.857843137,19.0212448 0.857843137,18.4264706 L0.857843137,0.308823529 L0.974790168,0.288165215 C1.22689101,0.244747829 1.58823294,0.188725833 2.05882353,0.120098039 C2.60784588,0.0400322794 3.13398441,-2.84217094e-14 3.6372549,-2.84217094e-14 C4.16340132,-2.84217094e-14 4.62663199,0.0400322794 5.02696078,0.120098039 C5.42728958,0.200163799 5.76470451,0.343137255 6.03921569,0.549019608 C6.31372686,0.75490299 6.51960784,1.04084784 6.65686275,1.40686275 C6.79411833,1.77287765 6.8627451,2.253265 6.8627451,2.84803922 L6.8627451,8.30392157 L14,0.102941176 C15.5555633,0.102941176 16.6707483,0.394604926 17.3455882,0.977941176 C18.0204282,1.56127743 18.3578431,2.25326397 18.3578431,3.05392157 C18.3578431,3.64869578 18.2091518,4.2091477 17.9117647,4.73529412 C17.6143776,5.26144054 17.1339902,5.85620583 16.4705882,6.51960784 L12.1813725,10.8088235 L12.7628001,11.4569723 C13.1567718,11.8941539 13.5634511,12.341501 13.9828431,12.7990196 L14.7322554,13.6143143 C14.9802287,13.8833333 15.2263717,14.1496069 15.4706854,14.4131363 L15.8357843,14.8063725 C16.2399258,15.2410152 16.6338963,15.6629449 17.017701,16.0721672 L19.0441176,18.2205882 L19.0441176,18.2205882 C19.0441176,18.7238587 18.9526153,19.1699327 18.7696078,19.5588235 C18.5866004,19.9477144 18.3406878,20.2794104 18.0318627,20.5539216 C17.7230377,20.8284327 17.374185,21.034313 16.9852941,21.1715686 C16.5964033,21.3088242 16.1846427,21.377451 15.75,21.377451 C14.8120868,21.377451 14.0457546,21.1429762 13.4509804,20.6740196 C12.8562062,20.205063 12.2843165,19.65033 11.7352941,19.0098039 L6.89705882,13.3823529 Z M21.5147059,4.66666667 C21.7434652,4.59803887 22.1037557,4.52941176 22.5955882,4.46078431 C23.0874208,4.39215652 23.5964026,4.35784314 24.122549,4.35784314 C24.6258195,4.35784314 25.0776124,4.39215652 25.4779412,4.46078431 C25.87827,4.52941176 26.2156849,4.66666564 26.4901961,4.87254902 C26.7647073,5.0784324 26.9763064,5.35865836 27.125,5.71323529 C27.2736936,6.06781223 27.3480392,6.53104289 27.3480392,7.10294118 L27.3480392,14.4803922 C27.3480392,15.4183053 27.5767951,16.0874163 28.0343137,16.4877451 C28.4918324,16.8880739 29.1552244,17.0882353 30.0245098,17.0882353 C30.5506562,17.0882353 30.9795735,17.0424841 31.3112745,16.9509804 C31.6429755,16.8594767 31.9003259,16.7679743 32.0833333,16.6764706 L32.0833333,4.66666667 C32.3120926,4.59803887 32.6723832,4.52941176 33.1642157,4.46078431 C33.6560482,4.39215652 34.16503,4.35784314 34.6911765,4.35784314 C35.194447,4.35784314 35.6462398,4.39215652 36.0465686,4.46078431 C36.4468974,4.52941176 36.7843137,4.66666564 37.0588235,4.87254902 C37.3333347,5.0784324 37.5449339,5.35865836 37.6936275,5.71323529 C37.842321,6.06781223 37.9166667,6.53104289 37.9166667,7.10294118 L37.9166667,17.5343137 C37.9166667,18.6399837 37.4677714,19.4784381 36.5699678,20.0497002 L36.4754902,20.1078431 C35.6748326,20.6111136 34.7197768,20.9942797 33.6102941,21.2573529 C32.5008114,21.5204262 31.2941242,21.6519608 29.9901961,21.6519608 C28.7548958,21.6519608 27.6168353,21.5147059 26.5759804,21.2401961 C25.5351255,20.9656849 24.6372587,20.5424865 23.8823529,19.9705882 C23.1274472,19.39869 22.5441176,18.6609522 22.1323529,17.7573529 C21.7205862,16.8537537 21.5147059,15.7614443 21.5147059,14.4803922 L21.5147059,4.66666667 Z M49.1372549,3.91176471 C50.5098108,3.91176471 51.7851248,4.08905051 52.9632353,4.44362745 C54.1413458,4.79820439 55.1535905,5.34149961 56,6.07352941 C56.8464095,6.80555922 57.5098015,7.72630164 57.9901961,8.83578431 C58.4705882,9.94526699 58.7107843,11.2663322 58.7107843,12.7990196 C58.7107843,14.2630792 58.504904,15.5441122 58.0931373,16.6421569 C57.6813705,17.7402016 57.098043,18.660944 56.3431373,19.4044118 C55.5882315,20.1478795 54.6789269,20.7026125 53.6151961,21.0686275 C52.5514653,21.4346424 51.3676536,21.6176471 50.0637255,21.6176471 C49.0800604,21.6176471 48.1650369,21.4689557 47.3186275,21.1715686 L47.3186275,26.8676471 C47.0898681,26.9362749 46.7238587,27.0106205 46.2205882,27.0906863 C45.7173177,27.170752 45.202617,27.2107843 44.6764706,27.2107843 C44.1732001,27.2107843 43.7214072,27.1764709 43.3210784,27.1078431 C42.9207496,27.0392153 42.5833347,26.9019608 42.3088235,26.6960784 C42.0343124,26.490195 41.8284314,26.2099691 41.6911765,25.8553922 C41.5539209,25.5008152 41.4852941,25.0375846 41.4852941,24.4656863 L41.4852941,7.99509804 C41.4852941,7.37744789 41.6168288,6.87418495 41.879902,6.48529412 C42.1429752,6.09640328 42.5032657,5.74183167 42.9607843,5.42156863 C43.6699382,4.96405 44.5506483,4.59803922 45.6029412,4.32352941 C46.655234,4.04901824 47.8333268,3.91176471 49.1372549,3.91176471 Z M49.2058824,17.0196078 C51.5621033,17.0196078 52.7401961,15.6127592 52.7401961,12.7990196 C52.7401961,11.33496 52.4485323,10.2483696 51.8651961,9.53921569 C51.2818598,8.83006181 50.441182,8.4754902 49.3431373,8.4754902 C48.9084946,8.4754902 48.5196096,8.52696027 48.1764706,8.62990196 C47.8333316,8.73284365 47.535949,8.85294049 47.2843137,8.99019608 L47.2843137,16.5392157 C47.5588249,16.6764713 47.8562075,16.7908492 48.1764706,16.8823529 C48.4967336,16.9738567 48.8398675,17.0196078 49.2058824,17.0196078 Z M78.8186275,12.7647059 C78.8186275,14.1830136 78.6013094,15.4468899 78.1666667,16.5563725 C77.732024,17.6658552 77.120102,18.5980354 76.3308824,19.3529412 C75.5416627,20.1078469 74.5980447,20.6797366 73.5,21.0686275 C72.4019553,21.4575183 71.1781113,21.6519608 69.8284314,21.6519608 C68.4787514,21.6519608 67.2549075,21.4460805 66.1568627,21.0343137 C65.058818,20.622547 64.1152,20.0335006 63.3259804,19.2671569 C62.5367608,18.5008132 61.9248388,17.5686329 61.4901961,16.4705882 C61.0555534,15.3725435 60.8382353,14.1372618 60.8382353,12.7647059 C60.8382353,11.4150259 61.0555534,10.191182 61.4901961,9.09313725 C61.9248388,7.99509255 62.5367608,7.06291233 63.3259804,6.29656863 C64.1152,5.53022493 65.058818,4.94117647 66.1568627,4.52941176 C67.2549075,4.117645 68.4787514,3.91176471 69.8284314,3.91176471 C71.1781113,3.91176471 72.4019553,4.1233639 73.5,4.54656863 C74.5980447,4.96977336 75.5416627,5.56453865 76.3308824,6.33088235 C77.120102,7.09722605 77.732024,8.02940627 78.1666667,9.12745098 C78.6013094,10.2254957 78.8186275,11.4379019 78.8186275,12.7647059 Z M66.8088235,12.7647059 C66.8088235,14.1601377 67.0776117,15.2295714 67.6151961,15.9730392 C68.1527805,16.716507 68.901956,17.0882353 69.8627451,17.0882353 C70.8235342,17.0882353 71.5612719,16.7107881 72.0759804,15.9558824 C72.5906888,15.2009766 72.8480392,14.1372618 72.8480392,12.7647059 C72.8480392,11.39215 72.58497,10.334154 72.0588235,9.59068627 C71.5326771,8.8472185 70.7892205,8.4754902 69.8284314,8.4754902 C68.8676423,8.4754902 68.1241856,8.8472185 67.5980392,9.59068627 C67.0718928,10.334154 66.8088235,11.39215 66.8088235,12.7647059 Z M92.2352941,10.5343137 C92.2352941,9.82515985 92.0351327,9.30474022 91.6348039,8.97303922 C91.2344751,8.64133821 90.6911799,8.4754902 90.004902,8.4754902 C89.5473833,8.4754902 89.0955905,8.53267917 88.6495098,8.64705882 C88.2034291,8.76143848 87.820263,8.93300539 87.5,9.16176471 L87.5,21.0686275 C87.2712407,21.1372552 86.9109502,21.205882 86.4191176,21.2745098 C85.9272851,21.3431376 85.4183033,21.377451 84.8921569,21.377451 C84.3888864,21.377451 83.9370935,21.3431376 83.5367647,21.2745098 C83.1364359,21.205882 82.799021,21.0686275 82.5245098,20.8627451 C82.2499986,20.6568617 82.0383994,20.3766358 81.8897059,20.0220588 C81.7410123,19.6674819 81.6666667,19.2042512 81.6666667,18.6323529 L81.6666667,8.33823529 C81.6666667,7.72058515 81.7982013,7.21732221 82.0612745,6.82843137 C82.3243477,6.43954054 82.6846382,6.08496892 83.1421569,5.76470588 C83.9199385,5.21568353 84.8978699,4.76960784 86.0759804,4.42647059 C87.2540909,4.08333333 88.5637183,3.91176471 90.004902,3.91176471 C92.5898822,3.91176471 94.5800584,4.47793551 95.9754902,5.61029412 C97.370922,6.74265272 98.0686275,8.31534941 98.0686275,10.3284314 L98.0686275,21.0686275 C97.8398681,21.1372552 97.4795776,21.205882 96.9877451,21.2745098 C96.4959126,21.3431376 95.9869307,21.377451 95.4607843,21.377451 C94.9575138,21.377451 94.505721,21.3431376 94.1053922,21.2745098 C93.7050634,21.205882 93.3676484,21.0686275 93.0931373,20.8627451 C92.8186275,20.6568617 92.6070269,20.3766358 92.4583333,20.0220588 C92.3096398,19.6674819 92.2352941,19.2042512 92.2352941,18.6323529 L92.2352941,10.5343137 Z" id="Kupon" fill="#FF0000"></path>
            <path d="M0.589767157,35.3088235 L0.589767157,30.2736864 L2.31115005,30.2736864 C2.82228414,30.2736864 3.27566311,30.384881 3.67130055,30.6072735 C4.066938,30.829666 4.36919064,31.1313043 4.57806756,31.5121975 C4.78694447,31.8930907 4.89138136,32.3206676 4.89138136,32.794941 C4.89138136,33.1512605 4.82994789,33.4836155 4.70707912,33.7920161 C4.58421035,34.1004167 4.41219665,34.3664236 4.19103286,34.5900448 C3.96986907,34.813666 3.69771882,34.9893657 3.37457395,35.1171492 C3.05142908,35.2449327 2.69695799,35.3088235 2.31115005,35.3088235 L0.589767157,35.3088235 Z M1.21639476,34.7485447 L2.31115005,34.7485447 C2.70678749,34.7485447 3.05327223,34.6600805 3.35061466,34.4831495 C3.64795709,34.3062185 3.87096056,34.0715426 4.01963178,33.779115 C4.16830299,33.4866873 4.24263748,33.1586326 4.24263748,32.794941 C4.24263748,32.4263347 4.16953166,32.0958227 4.02331782,31.803395 C3.87710398,31.5109673 3.65594351,31.2762915 3.35982977,31.0993604 C3.06371603,30.9224294 2.71415962,30.8339652 2.31115005,30.8339652 L1.21639476,30.8339652 L1.21639476,34.7485447 Z M5.86081112,31.0330116 C5.78708986,30.9592904 5.75022978,30.8695975 5.75022978,30.7639304 C5.75022978,30.6582632 5.78770419,30.567956 5.86265414,30.4930061 C5.93760409,30.4180561 6.02791129,30.3805817 6.13357843,30.3805817 C6.23924558,30.3805817 6.32893843,30.4180561 6.4026597,30.4930061 C6.47638096,30.567956 6.51324104,30.6582632 6.51324104,30.7639304 C6.51324104,30.8695975 6.47638096,30.9592904 6.4026597,31.0330116 C6.32893843,31.1067329 6.23924558,31.143593 6.13357843,31.143593 C6.02791129,31.143593 5.93698976,31.1067329 5.86081112,31.0330116 Z M5.84975299,35.3088235 L5.84975299,31.6633253 L6.41371783,31.6633253 L6.41371783,35.3088235 L5.84975299,35.3088235 Z M7.23570581,34.8259517 L7.51953125,34.4168007 C7.64977215,34.5642432 7.82301452,34.6883388 8.03926356,34.7890912 C8.2555126,34.8898436 8.48281641,34.9402191 8.72118183,34.9402191 C8.99395051,34.9402191 9.20712463,34.8824716 9.36071059,34.766975 C9.51429656,34.6514783 9.59108839,34.500352 9.59108839,34.3135915 C9.59108839,34.1956374 9.54931363,34.0961152 9.46576287,34.0150218 C9.3822121,33.9339284 9.27408921,33.8712663 9.14139093,33.8270335 C9.00869266,33.7828008 8.86248101,33.7422547 8.70275161,33.7053941 C8.5430222,33.6685334 8.38268086,33.62553 8.22172277,33.5763825 C8.06076468,33.527235 7.9139387,33.4670302 7.78124043,33.3957663 C7.64854215,33.3245024 7.54041925,33.2231372 7.45686849,33.0916676 C7.37331772,32.960198 7.33154297,32.8035427 7.33154297,32.6216969 C7.33154297,32.3218971 7.45195256,32.0718629 7.69277535,31.8715868 C7.93359815,31.6713107 8.26411018,31.5711742 8.68432138,31.5711742 C9.23968823,31.5711742 9.68938119,31.7481026 10.0334138,32.1019646 L9.77170458,32.4926854 C9.65866531,32.3550723 9.50692465,32.2438778 9.31647806,32.1590983 C9.12603146,32.0743189 8.91531468,32.0319298 8.68432138,32.0319298 C8.44104122,32.0319298 8.2456828,32.0866055 8.09824027,32.1959588 C7.95079775,32.305312 7.87707759,32.4423086 7.87707759,32.6069527 C7.87707759,32.7126199 7.91885234,32.8016984 8.00240311,32.874191 C8.08595387,32.9466836 8.19346244,33.0032023 8.32493202,33.043749 C8.45640161,33.0842957 8.60261326,33.1223845 8.76357135,33.1580164 C8.92452944,33.1936484 9.08548511,33.2372661 9.24644321,33.288871 C9.4074013,33.3404759 9.55361294,33.4037524 9.68508253,33.4787023 C9.81655212,33.5536523 9.92406068,33.6611608 10.0076114,33.8012312 C10.0911622,33.9413016 10.132937,34.107172 10.132937,34.2988473 C10.132937,34.6183061 10.008227,34.8818556 9.75880342,35.0895039 C9.50937982,35.2971521 9.15859473,35.4009746 8.70643765,35.4009746 C8.09455117,35.4009746 7.60431212,35.2093022 7.23570581,34.8259517 Z M10.8406576,33.4805453 C10.8406576,33.1217685 10.9162207,32.7980142 11.0673493,32.5092726 C11.2184779,32.2205309 11.4328807,31.9919985 11.7105641,31.8236682 C11.9882475,31.655338 12.3052442,31.5711742 12.6615636,31.5711742 C13.2243026,31.5711742 13.6690809,31.7825053 13.9959118,32.2051739 L13.6199353,32.54429 C13.3913994,32.2322033 13.0817747,32.0761623 12.691052,32.0761623 C12.3101588,32.0761623 12.0048345,32.2076299 11.7750699,32.4705691 C11.5453053,32.7335083 11.4304247,33.0701636 11.4304247,33.4805453 C11.4304247,33.890927 11.5459196,34.2288111 11.7769129,34.4942076 C12.0079062,34.7596042 12.3126162,34.8923005 12.691052,34.8923005 C13.0719452,34.8923005 13.3815699,34.7338021 13.6199353,34.4168007 L13.9959118,34.766975 C13.6690809,35.1896435 13.2243026,35.4009746 12.6615636,35.4009746 C12.1258558,35.4009746 11.6884495,35.2179029 11.3493317,34.851754 C11.0102139,34.485605 10.8406576,34.0285401 10.8406576,33.4805453 Z M14.7994696,34.4462891 C14.6544844,34.1563188 14.581993,33.8344074 14.581993,33.4805453 C14.581993,33.1266833 14.6544844,32.8060006 14.7994696,32.5184877 C14.9444547,32.2309747 15.1551715,32.0012136 15.4316263,31.8291973 C15.708081,31.657181 16.0269207,31.5711742 16.3881549,31.5711742 C16.7493891,31.5711742 17.0682287,31.657181 17.3446835,31.8291973 C17.6211382,32.0012136 17.8312407,32.2309747 17.9749971,32.5184877 C18.1187536,32.8060006 18.1906307,33.1266833 18.1906307,33.4805453 C18.1906307,33.8344074 18.1187536,34.1563188 17.9749971,34.4462891 C17.8312407,34.7362594 17.6211382,34.9678635 17.3446835,35.1411085 C17.0682287,35.3143535 16.7493891,35.4009746 16.3881549,35.4009746 C16.0269207,35.4009746 15.708081,35.3143535 15.4316263,35.1411085 C15.1551715,34.9678635 14.9444547,34.7362594 14.7994696,34.4462891 Z M15.1791322,33.4805453 C15.1791322,33.8737254 15.2872551,34.2073091 15.5035041,34.4813065 C15.7197532,34.7553038 16.0146338,34.8923005 16.3881549,34.8923005 C16.6388072,34.8923005 16.856896,34.8259523 17.0424278,34.6932541 C17.2279597,34.5605558 17.366185,34.3891564 17.4571078,34.1790508 C17.5480307,33.9689452 17.5934915,33.7361124 17.5934915,33.4805453 C17.5934915,33.2274357 17.5480307,32.9964458 17.4571078,32.7875689 C17.366185,32.578692 17.2279597,32.407907 17.0424278,32.2752087 C16.856896,32.1425104 16.6388072,32.0761623 16.3881549,32.0761623 C16.1375026,32.0761623 15.9187994,32.1425104 15.7320389,32.2752087 C15.5452784,32.407907 15.4064387,32.5793064 15.3155159,32.789412 C15.224593,32.9995176 15.1791322,33.229893 15.1791322,33.4805453 Z M19.1121419,34.2361845 L19.1121419,31.6633253 L19.6761068,31.6633253 L19.6761068,34.0629404 C19.6761068,34.367655 19.7461409,34.5820578 19.8862113,34.7061552 C20.0262817,34.8302527 20.2302408,34.8923005 20.4980947,34.8923005 C20.709429,34.8923005 20.9133881,34.8394677 21.1099782,34.7338006 C21.3065682,34.6281334 21.4601519,34.4978945 21.5707338,34.3430798 L21.5707338,31.6633253 L22.1383847,31.6633253 L22.1383847,35.3088235 L21.5707338,35.3088235 L21.5707338,34.7964633 C21.4183765,34.9684796 21.2279327,35.1122339 20.9993968,35.2277305 C20.7708609,35.3432272 20.5288131,35.4009746 20.273246,35.4009746 C19.4991728,35.4009746 19.1121419,35.0127152 19.1121419,34.2361845 Z M23.2700004,35.3088235 L23.2700004,31.6633253 L23.8339652,31.6633253 L23.8339652,32.1904297 C23.976493,32.0208708 24.1657081,31.8752735 24.4016161,31.7536334 C24.6375242,31.6319933 24.8844867,31.5711742 25.1425111,31.5711742 C25.9116696,31.5711742 26.2962431,31.9643483 26.2962431,32.7507085 L26.2962431,35.3088235 L25.7359643,35.3088235 L25.7359643,32.9239526 C25.7359643,32.6167807 25.6647015,32.3986919 25.5221737,32.2696796 C25.3796459,32.1406674 25.1769155,32.0761623 24.9139763,32.0761623 C24.702642,32.0761623 24.4992973,32.1314524 24.3039359,32.2420343 C24.1085746,32.3526162 23.9519192,32.4865412 23.8339652,32.6438132 L23.8339652,35.3088235 L23.2700004,35.3088235 Z M26.9413009,32.1609413 L26.9413009,31.6633253 L27.5458123,31.6633253 L27.5458123,30.6644072 L28.1208352,30.6644072 L28.1208352,31.6633253 L28.8617302,31.6633253 L28.8617302,32.1609413 L28.1208352,32.1609413 L28.1208352,34.4241728 C28.1208352,34.5667006 28.151552,34.6803525 28.2129864,34.7651319 C28.2744208,34.8499114 28.3641136,34.8923005 28.4820676,34.8923005 C28.6491692,34.8923005 28.7781794,34.8394677 28.8691023,34.7338006 L29.0349743,35.1650678 C28.8703302,35.3223398 28.6467124,35.4009746 28.3641142,35.4009746 C28.0962603,35.4009746 27.8929155,35.3266402 27.7540738,35.1779689 C27.6152321,35.0292977 27.5458123,34.8185809 27.5458123,34.5458123 L27.5458123,32.1609413 L26.9413009,32.1609413 Z M29.3446021,34.8259517 L29.6284275,34.4168007 C29.7586684,34.5642432 29.9319108,34.6883388 30.1481598,34.7890912 C30.3644089,34.8898436 30.5917127,34.9402191 30.8300781,34.9402191 C31.1028468,34.9402191 31.3160209,34.8824716 31.4696069,34.766975 C31.6231929,34.6514783 31.6999847,34.500352 31.6999847,34.3135915 C31.6999847,34.1956374 31.6582099,34.0961152 31.5746592,34.0150218 C31.4911084,33.9339284 31.3829855,33.8712663 31.2502872,33.8270335 C31.117589,33.7828008 30.9713773,33.7422547 30.8116479,33.7053941 C30.6519185,33.6685334 30.4915772,33.62553 30.3306191,33.5763825 C30.169661,33.527235 30.022835,33.4670302 29.8901367,33.3957663 C29.7574384,33.3245024 29.6493155,33.2231372 29.5657648,33.0916676 C29.482214,32.960198 29.4404393,32.8035427 29.4404393,32.6216969 C29.4404393,32.3218971 29.5608489,32.0718629 29.8016716,31.8715868 C30.0424944,31.6713107 30.3730065,31.5711742 30.7932177,31.5711742 C31.3485845,31.5711742 31.7982775,31.7481026 32.14231,32.1019646 L31.8806009,32.4926854 C31.7675616,32.3550723 31.6158209,32.2438778 31.4253743,32.1590983 C31.2349278,32.0743189 31.024211,32.0319298 30.7932177,32.0319298 C30.5499375,32.0319298 30.3545791,32.0866055 30.2071366,32.1959588 C30.059694,32.305312 29.9859739,32.4423086 29.9859739,32.6069527 C29.9859739,32.7126199 30.0277486,32.8016984 30.1112994,32.874191 C30.1948502,32.9466836 30.3023587,33.0032023 30.4338283,33.043749 C30.5652979,33.0842957 30.7115095,33.1223845 30.8724676,33.1580164 C31.0334257,33.1936484 31.1943814,33.2372661 31.3553395,33.288871 C31.5162976,33.3404759 31.6625092,33.4037524 31.7939788,33.4787023 C31.9254484,33.5536523 32.032957,33.6611608 32.1165077,33.8012312 C32.2000585,33.9413016 32.2418333,34.107172 32.2418333,34.2988473 C32.2418333,34.6183061 32.1171233,34.8818556 31.8676997,35.0895039 C31.6182761,35.2971521 31.267491,35.4009746 30.8153339,35.4009746 C30.2034475,35.4009746 29.7132084,35.2093022 29.3446021,34.8259517 Z M34.9031576,33.4805453 C34.9031576,33.131598 34.9799494,32.8115297 35.1335353,32.5203307 C35.2871213,32.2291317 35.5015241,31.9981419 35.7767502,31.8273543 C36.0519762,31.6565667 36.3603722,31.5711742 36.7019474,31.5711742 C37.0607242,31.5711742 37.3740349,31.6584097 37.6418888,31.8328833 C37.9097427,32.007357 38.1118588,32.2414185 38.2482431,32.5350749 C38.3846275,32.8287312 38.4528186,33.1598576 38.4528186,33.5284639 L38.4528186,33.6722197 L35.5076689,33.6722197 C35.5297853,34.0309965 35.6581812,34.3307918 35.8928606,34.5716146 C36.1275399,34.8124374 36.4340929,34.932847 36.8125287,34.932847 C37.0263204,34.932847 37.2321225,34.8923009 37.4299412,34.8112075 C37.6277599,34.7301141 37.800388,34.6146192 37.9478305,34.4647193 L38.2169118,34.8333238 C37.8311038,35.2117596 37.3482368,35.4009746 36.7682962,35.4009746 C36.2227588,35.4009746 35.7755232,35.2228176 35.4265759,34.8664982 C35.0776286,34.5101787 34.9031576,34.0481991 34.9031576,33.4805453 Z M35.5002968,33.2483245 L37.8925398,33.2483245 C37.8900825,33.1082541 37.8648947,32.9694145 37.8169759,32.8318015 C37.7690571,32.6941884 37.6984086,32.5651782 37.6050283,32.4447668 C37.5116481,32.3243554 37.3863238,32.2266762 37.2290518,32.1517262 C37.0717797,32.0767763 36.8936227,32.0393019 36.6945753,32.0393019 C36.5078148,32.0393019 36.3382584,32.0761619 36.1859011,32.1498832 C36.0335438,32.2236045 35.9100626,32.320055 35.8154536,32.4392377 C35.7208447,32.5584204 35.6465102,32.6874307 35.5924479,32.8262724 C35.5383857,32.9651141 35.5076689,33.1057967 35.5002968,33.2483245 Z M38.8214231,31.6633253 L39.4406786,31.6633253 L40.6497013,34.6527076 L41.86241,31.6633253 L42.4742934,31.6633253 L40.959329,35.3088235 L40.3400735,35.3088235 L38.8214231,31.6633253 Z M42.85027,33.4805453 C42.85027,33.131598 42.9270618,32.8115297 43.0806478,32.5203307 C43.2342338,32.2291317 43.4486365,31.9981419 43.7238626,31.8273543 C43.9990886,31.6565667 44.3074846,31.5711742 44.6490598,31.5711742 C45.0078366,31.5711742 45.3211473,31.6584097 45.5890012,31.8328833 C45.8568551,32.007357 46.0589712,32.2414185 46.1953556,32.5350749 C46.3317399,32.8287312 46.3999311,33.1598576 46.3999311,33.5284639 L46.3999311,33.6722197 L43.4547813,33.6722197 C43.4768977,34.0309965 43.6052936,34.3307918 43.839973,34.5716146 C44.0746524,34.8124374 44.3812053,34.932847 44.7596412,34.932847 C44.9734328,34.932847 45.1792349,34.8923009 45.3770537,34.8112075 C45.5748724,34.7301141 45.7475004,34.6146192 45.8949429,34.4647193 L46.1640242,34.8333238 C45.7782163,35.2117596 45.2953492,35.4009746 44.7154086,35.4009746 C44.1698713,35.4009746 43.7226357,35.2228176 43.3736883,34.8664982 C43.024741,34.5101787 42.85027,34.0481991 42.85027,33.4805453 Z M43.4474092,33.2483245 L45.8396523,33.2483245 C45.8371949,33.1082541 45.8120072,32.9694145 45.7640884,32.8318015 C45.7161695,32.6941884 45.645521,32.5651782 45.5521408,32.4447668 C45.4587605,32.3243554 45.3334362,32.2266762 45.1761642,32.1517262 C45.0188922,32.0767763 44.8407351,32.0393019 44.6416877,32.0393019 C44.4549272,32.0393019 44.2853708,32.0761619 44.1330136,32.1498832 C43.9806563,32.2236045 43.857175,32.320055 43.7625661,32.4392377 C43.6679571,32.5584204 43.5936226,32.6874307 43.5395604,32.8262724 C43.4854981,32.9651141 43.4547814,33.1057967 43.4474092,33.2483245 Z M47.3140702,35.3088235 L47.3140702,31.6633253 L47.878035,31.6633253 L47.878035,32.2457204 C48.035307,32.0442156 48.2183788,31.8826456 48.4272557,31.7610055 C48.6361326,31.6393654 48.8585217,31.5785463 49.0944298,31.5785463 L49.0944298,32.1609413 C49.0059642,32.1511118 48.9334728,32.1461972 48.8769531,32.1461972 C48.7024795,32.1461972 48.5132644,32.2057876 48.3093022,32.3249703 C48.1053401,32.444153 47.9615858,32.5786923 47.878035,32.7285922 L47.878035,35.3088235 L47.3140702,35.3088235 Z M49.2566157,31.6633253 L49.8758712,31.6633253 L51.0848939,34.6527076 L52.2976026,31.6633253 L52.9094861,31.6633253 L51.0848939,36.0497185 C50.8858465,36.5338215 50.5283037,36.7795553 50.0122549,36.7869275 C49.8549829,36.7869275 49.7186006,36.7697261 49.6031039,36.7353228 L49.687883,36.2229626 C49.7788059,36.2622806 49.8820141,36.2819393 49.9975107,36.2819393 C50.130209,36.2819393 50.2383319,36.2542943 50.3218827,36.1990033 C50.4054334,36.1437124 50.4779249,36.0435758 50.5393593,35.8985907 L50.7826383,35.345684 L49.2566157,31.6633253 Z M53.0237534,31.6633253 L53.6098346,31.6633253 L54.5018574,34.5679285 L55.460229,31.6633253 L55.950473,31.6633253 L56.9014725,34.5679285 L57.7934953,31.6633253 L58.3906346,31.6633253 L57.2258444,35.3088235 L56.6545075,35.3088235 L55.703508,32.378418 L54.7525084,35.3088235 L54.1848575,35.3088235 L53.0237534,31.6633253 Z M59.0467505,35.3088235 L59.0467505,30.2736864 L59.6107154,30.2736864 L59.6107154,32.1904297 C59.7483284,32.0208708 59.9344718,31.8752735 60.1691512,31.7536334 C60.4038305,31.6319933 60.6514074,31.5711742 60.9118892,31.5711742 C61.6859624,31.5711742 62.0729933,31.9594337 62.0729933,32.7359643 L62.0729933,35.3088235 L61.5053424,35.3088235 L61.5053424,32.9092084 C61.5053424,32.6020365 61.4353082,32.386405 61.2952378,32.2623076 C61.1551674,32.1382101 60.9512083,32.0761623 60.6833544,32.0761623 C60.4744775,32.0761623 60.2717471,32.1314524 60.075157,32.2420343 C59.878567,32.3526162 59.7237547,32.4865412 59.6107154,32.6438132 L59.6107154,35.3088235 L59.0467505,35.3088235 Z M62.9908184,33.4805453 C62.9908184,33.131598 63.0676102,32.8115297 63.2211962,32.5203307 C63.3747822,32.2291317 63.5891849,31.9981419 63.864411,31.8273543 C64.139637,31.6565667 64.448033,31.5711742 64.7896082,31.5711742 C65.148385,31.5711742 65.4616957,31.6584097 65.7295496,31.8328833 C65.9974036,32.007357 66.1995197,32.2414185 66.335904,32.5350749 C66.4722883,32.8287312 66.5404795,33.1598576 66.5404795,33.5284639 L66.5404795,33.6722197 L63.5953297,33.6722197 C63.6174461,34.0309965 63.7458421,34.3307918 63.9805214,34.5716146 C64.2152008,34.8124374 64.5217538,34.932847 64.9001896,34.932847 C65.1139812,34.932847 65.3197833,34.8923009 65.5176021,34.8112075 C65.7154208,34.7301141 65.8880488,34.6146192 66.0354913,34.4647193 L66.3045726,34.8333238 C65.9187647,35.2117596 65.4358976,35.4009746 64.855957,35.4009746 C64.3104197,35.4009746 63.8631841,35.2228176 63.5142367,34.8664982 C63.1652894,34.5101787 62.9908184,34.0481991 62.9908184,33.4805453 Z M63.5879576,33.2483245 L65.9802007,33.2483245 C65.9777433,33.1082541 65.9525556,32.9694145 65.9046368,32.8318015 C65.8567179,32.6941884 65.7860695,32.5651782 65.6926892,32.4447668 C65.5993089,32.3243554 65.4739847,32.2266762 65.3167126,32.1517262 C65.1594406,32.0767763 64.9812835,32.0393019 64.7822361,32.0393019 C64.5954756,32.0393019 64.4259192,32.0761619 64.273562,32.1498832 C64.1212047,32.2236045 63.9977234,32.320055 63.9031145,32.4392377 C63.8085055,32.5584204 63.734171,32.6874307 63.6801088,32.8262724 C63.6260465,32.9651141 63.5953298,33.1057967 63.5879576,33.2483245 Z M67.4546186,35.3088235 L67.4546186,31.6633253 L68.0185834,31.6633253 L68.0185834,32.2457204 C68.1758554,32.0442156 68.3589272,31.8826456 68.5678041,31.7610055 C68.776681,31.6393654 68.9990701,31.5785463 69.2349782,31.5785463 L69.2349782,32.1609413 C69.1465127,32.1511118 69.0740212,32.1461972 69.0175015,32.1461972 C68.8430279,32.1461972 68.6538128,32.2057876 68.4498506,32.3249703 C68.2458885,32.444153 68.1021342,32.5786923 68.0185834,32.7285922 L68.0185834,35.3088235 L67.4546186,35.3088235 Z M69.7289082,33.4805453 C69.7289082,33.131598 69.8057,32.8115297 69.959286,32.5203307 C70.1128719,32.2291317 70.3272747,31.9981419 70.6025008,31.8273543 C70.8777268,31.6565667 71.1861228,31.5711742 71.527698,31.5711742 C71.8864748,31.5711742 72.1997855,31.6584097 72.4676394,31.8328833 C72.7354933,32.007357 72.9376094,32.2414185 73.0739938,32.5350749 C73.2103781,32.8287312 73.2785692,33.1598576 73.2785692,33.5284639 L73.2785692,33.6722197 L70.3334195,33.6722197 C70.3555359,34.0309965 70.4839318,34.3307918 70.7186112,34.5716146 C70.9532905,34.8124374 71.2598435,34.932847 71.6382793,34.932847 C71.852071,34.932847 72.0578731,34.8923009 72.2556918,34.8112075 C72.4535106,34.7301141 72.6261386,34.6146192 72.7735811,34.4647193 L73.0426624,34.8333238 C72.6568544,35.2117596 72.1739874,35.4009746 71.5940468,35.4009746 C71.0485095,35.4009746 70.6012738,35.2228176 70.2523265,34.8664982 C69.9033792,34.5101787 69.7289082,34.0481991 69.7289082,33.4805453 Z M70.3260474,33.2483245 L72.7182904,33.2483245 C72.7158331,33.1082541 72.6906453,32.9694145 72.6427265,32.8318015 C72.5948077,32.6941884 72.5241592,32.5651782 72.430779,32.4447668 C72.3373987,32.3243554 72.2120744,32.2266762 72.0548024,32.1517262 C71.8975304,32.0767763 71.7193733,32.0393019 71.5203259,32.0393019 C71.3335654,32.0393019 71.164009,32.0761619 71.0116517,32.1498832 C70.8592945,32.2236045 70.7358132,32.320055 70.6412042,32.4392377 C70.5465953,32.5584204 70.4722608,32.6874307 70.4181985,32.8262724 C70.3641363,32.9651141 70.3334195,33.1057967 70.3260474,33.2483245 Z M75.6007774,31.6633253 L76.2200329,31.6633253 L77.4290556,34.6527076 L78.6417643,31.6633253 L79.2536477,31.6633253 L77.4290556,36.0497185 C77.2300082,36.5338215 76.8724654,36.7795553 76.3564166,36.7869275 C76.1991446,36.7869275 76.0627623,36.7697261 75.9472656,36.7353228 L76.0320447,36.2229626 C76.1229675,36.2622806 76.2261758,36.2819393 76.3416724,36.2819393 C76.4743707,36.2819393 76.5824936,36.2542943 76.6660443,36.1990033 C76.7495951,36.1437124 76.8220866,36.0435758 76.883521,35.8985907 L77.1267999,35.345684 L75.6007774,31.6633253 Z M79.8471009,34.4462891 C79.7021158,34.1563188 79.6296243,33.8344074 79.6296243,33.4805453 C79.6296243,33.1266833 79.7021158,32.8060006 79.8471009,32.5184877 C79.9920861,32.2309747 80.2028029,32.0012136 80.4792576,31.8291973 C80.7557124,31.657181 81.074552,31.5711742 81.4357862,31.5711742 C81.7970204,31.5711742 82.1158601,31.657181 82.3923148,31.8291973 C82.6687696,32.0012136 82.878872,32.2309747 83.0226285,32.5184877 C83.1663849,32.8060006 83.2382621,33.1266833 83.2382621,33.4805453 C83.2382621,33.8344074 83.1663849,34.1563188 83.0226285,34.4462891 C82.878872,34.7362594 82.6687696,34.9678635 82.3923148,35.1411085 C82.1158601,35.3143535 81.7970204,35.4009746 81.4357862,35.4009746 C81.074552,35.4009746 80.7557124,35.3143535 80.4792576,35.1411085 C80.2028029,34.9678635 79.9920861,34.7362594 79.8471009,34.4462891 Z M80.2267636,33.4805453 C80.2267636,33.8737254 80.3348865,34.2073091 80.5511355,34.4813065 C80.7673845,34.7553038 81.0622652,34.8923005 81.4357862,34.8923005 C81.6864385,34.8923005 81.9045273,34.8259523 82.0900592,34.6932541 C82.275591,34.5605558 82.4138163,34.3891564 82.5047392,34.1790508 C82.5956621,33.9689452 82.6411229,33.7361124 82.6411229,33.4805453 C82.6411229,33.2274357 82.5956621,32.9964458 82.5047392,32.7875689 C82.4138163,32.578692 82.275591,32.407907 82.0900592,32.2752087 C81.9045273,32.1425104 81.6864385,32.0761623 81.4357862,32.0761623 C81.1851339,32.0761623 80.9664308,32.1425104 80.7796703,32.2752087 C80.5929097,32.407907 80.4540701,32.5793064 80.3631472,32.789412 C80.2722243,32.9995176 80.2267636,33.229893 80.2267636,33.4805453 Z M84.1597733,34.2361845 L84.1597733,31.6633253 L84.7237381,31.6633253 L84.7237381,34.0629404 C84.7237381,34.367655 84.7937723,34.5820578 84.9338427,34.7061552 C85.0739131,34.8302527 85.2778722,34.8923005 85.5457261,34.8923005 C85.7570604,34.8923005 85.9610195,34.8394677 86.1576095,34.7338006 C86.3541996,34.6281334 86.5077832,34.4978945 86.6183651,34.3430798 L86.6183651,31.6633253 L87.186016,31.6633253 L87.186016,35.3088235 L86.6183651,35.3088235 L86.6183651,34.7964633 C86.4660078,34.9684796 86.2755641,35.1122339 86.0470282,35.2277305 C85.8184923,35.3432272 85.5764444,35.4009746 85.3208774,35.4009746 C84.5468041,35.4009746 84.1597733,35.0127152 84.1597733,34.2361845 Z M90.0574449,33.4658012 C90.0574449,32.8883179 90.2073425,32.4281813 90.5071423,32.0853774 C90.8069421,31.7425735 91.1988876,31.5711742 91.6829906,31.5711742 C91.9262707,31.5711742 92.1541889,31.627693 92.3667519,31.7407322 C92.5793149,31.8537715 92.7605436,32.0110412 92.9104435,32.212546 L92.9104435,31.6633253 L93.4780944,31.6633253 L93.4780944,35.2572189 C93.4780944,35.5349023 93.4301763,35.7757215 93.3343386,35.9796837 C93.238501,36.1836458 93.106419,36.3427585 92.9380888,36.4570265 C92.7697586,36.5712944 92.5860725,36.6548439 92.3870251,36.7076775 C92.1879777,36.7605111 91.9705032,36.7869275 91.7345952,36.7869275 C91.4151364,36.7869275 91.1429862,36.74761 90.9181363,36.668974 C90.6932864,36.590338 90.4751976,36.4465837 90.2638634,36.2377068 L90.5476888,35.8285558 C90.6975887,36.0030295 90.8665307,36.1283538 91.05452,36.2045324 C91.2425092,36.280711 91.4691987,36.3187998 91.7345952,36.3187998 C92.0687983,36.3187998 92.3483205,36.2315643 92.5731704,36.0570906 C92.7980202,35.882617 92.9104435,35.6159957 92.9104435,35.2572189 L92.9104435,34.7043122 C92.7679157,34.8984449 92.5891443,35.0551002 92.374124,35.1742829 C92.1591036,35.2934656 91.9287281,35.3530561 91.6829906,35.3530561 C91.1988876,35.3530561 90.8069421,35.1834997 90.5071423,34.8443819 C90.2073425,34.5052641 90.0574449,34.0457418 90.0574449,33.4658012 Z M90.647212,33.4658012 C90.647212,33.8737255 90.7522632,34.2060805 90.9623688,34.4628763 C91.1724744,34.719672 91.4593687,34.8480679 91.8230603,34.8480679 C92.0393093,34.8480679 92.2481831,34.7909348 92.4496879,34.6766669 C92.6511927,34.5623989 92.8047763,34.4229449 92.9104435,34.2583008 L92.9104435,32.6585574 C92.8047763,32.4963706 92.6505783,32.3587596 92.4478449,32.2457204 C92.2451114,32.1326811 92.0368519,32.0761623 91.8230603,32.0761623 C91.4593687,32.0761623 91.1724744,32.2045582 90.9623688,32.461354 C90.7522632,32.7181497 90.647212,33.0529621 90.647212,33.4658012 Z M94.6133961,34.4462891 C94.468411,34.1563188 94.3959195,33.8344074 94.3959195,33.4805453 C94.3959195,33.1266833 94.468411,32.8060006 94.6133961,32.5184877 C94.7583813,32.2309747 94.9690981,32.0012136 95.2455528,31.8291973 C95.5220075,31.657181 95.8408472,31.5711742 96.2020814,31.5711742 C96.5633156,31.5711742 96.8821553,31.657181 97.15861,31.8291973 C97.4350648,32.0012136 97.6451672,32.2309747 97.7889237,32.5184877 C97.9326801,32.8060006 98.0045573,33.1266833 98.0045573,33.4805453 C98.0045573,33.8344074 97.9326801,34.1563188 97.7889237,34.4462891 C97.6451672,34.7362594 97.4350648,34.9678635 97.15861,35.1411085 C96.8821553,35.3143535 96.5633156,35.4009746 96.2020814,35.4009746 C95.8408472,35.4009746 95.5220075,35.3143535 95.2455528,35.1411085 C94.9690981,34.9678635 94.7583813,34.7362594 94.6133961,34.4462891 Z M94.9930587,33.4805453 C94.9930587,33.8737254 95.1011816,34.2073091 95.3174307,34.4813065 C95.5336797,34.7553038 95.8285604,34.8923005 96.2020814,34.8923005 C96.4527337,34.8923005 96.6708225,34.8259523 96.8563544,34.6932541 C97.0418862,34.5605558 97.1801115,34.3891564 97.2710344,34.1790508 C97.3619573,33.9689452 97.407418,33.7361124 97.407418,33.4805453 C97.407418,33.2274357 97.3619573,32.9964458 97.2710344,32.7875689 C97.1801115,32.578692 97.0418862,32.407907 96.8563544,32.2752087 C96.6708225,32.1425104 96.4527337,32.0761623 96.2020814,32.0761623 C95.9514291,32.0761623 95.732726,32.1425104 95.5459655,32.2752087 C95.3592049,32.407907 95.2203653,32.5793064 95.1294424,32.789412 C95.0385195,32.9995176 94.9930587,33.229893 94.9930587,33.4805453 Z" id="Discountseverywhereyougo" fill="#000000"></path>
        </g>
        <g id="Group-2" transform="translate(11.666667, 8.235294)">
            <polygon id="Path-3" stroke="#000000" stroke-width="0.5" fill="#FFFF00" transform="translate(23.161765, 45.153959) scale(1, -1) rotate(6.000000) translate(-23.161765, -45.153959) " points="28.4803922 32.6608583 9.95098039 56.3373289 9.95098039 58.3961524 20.5882353 58.3961524 36.372549 38.8373289 35.6075416 31.9117647"></polygon>
            <circle id="Oval-Copy" stroke="#000000" stroke-width="0.5" fill="#FFFFFF" cx="32.4264706" cy="52.1568627" r="1.20098039"></circle>
            <rect id="Rectangle" stroke="#000000" stroke-width="0.5" fill="#FF0000" x="0" y="9.26470588" width="10.6372549" height="47.6960784" rx="1.37254902"></rect>
            <path d="M5.14705882,12.6960784 L4.46078431,11.7602496 C1.25816993,5.58377897 1.25816993,1.69489008 4.46078431,0.0935828877 C7.66339869,-0.592691622 9.03594771,2.49554367 8.57843137,9.35828877" id="Path-2" stroke="#000000" stroke-width="0.68627451"></path>
            <circle id="Oval" fill="#FFFFFF" cx="5.14705882" cy="12.3529412" r="1.37254902"></circle>
            <polygon id="Path-3" fill="#000000" points="29.1666667 8.57843137 10.6372549 32.254902 10.6372549 34.3137255 21.2745098 34.3137255 37.0588235 14.754902 36.372549 8.57843137"></polygon>
            <path d="M38.3955248,16.6817956 L37.7092503,15.7459667 C34.5066359,9.56949616 34.5066359,5.68060727 37.7092503,4.07930008 C40.9118647,3.39302557 42.2844137,6.48126086 41.8268973,13.344006" id="Path-2-Copy" stroke="#FF0000" stroke-width="0.68627451" transform="translate(38.609986, 10.333756) rotate(69.000000) translate(-38.609986, -10.333756) "></path>
            <path d="M39.1176471,60.3921569 L38.4313725,59.456328 C35.2287582,53.2798574 35.2287582,49.3909685 38.4313725,47.7896613 C41.6339869,47.1033868 43.0065359,50.1916221 42.5490196,57.0543672" id="Path-2-Copy-2" stroke="#000000" stroke-width="0.68627451" transform="translate(39.332108, 54.044118) scale(1, -1) rotate(79.000000) translate(-39.332108, -54.044118) "></path>
            <path d="M35.3431373,12.3529412 C35.4058302,12.7290989 35.9777256,13.5297525 37.0588235,14.754902 L36.7156863,12.3529412 C35.7379606,11.9767834 35.2804443,11.9767834 35.3431373,12.3529412 Z" id="Path-3" fill="#000000"></path>
            <circle id="Oval-Copy" stroke="#FFFFFF" stroke-width="0.5" fill="#FFFFFF" cx="32.4264706" cy="12.5245098" r="1.20098039"></circle>
        </g>
    </g>
</svg>